<svg data-v-06c5d478="" version="1.0" xmlns="http://www.w3.org/2000/svg" xmlns:xlink="http://www.w3.org/1999/xlink" width="100%" height="100%" viewBox="0 0 340.000000 250.000000" preserveAspectRatio="xMidYMid meet" color-interpolation-filters="sRGB" class="el-tooltip" style="margin: auto;"><rect data-v-06c5d478="" x="0" y="0" width="100%" height="100%" fill="url(#93)" fill-opacity="1"></rect>  <g data-v-06c5d478="" fill="#fff" class="bordersvg b-d1" transform="translate(72.82499694824219,67.1402359008789)"><polyline stroke="#fff" stroke-width="3" fill-opacity="0" fill="url(#93)" points="102.17500305175781,30 102.17500305175781,10 10,10 10,115.71952819824219 102.17500305175781,115.71952819824219 102.17500305175781,95.71952819824219"></polyline> <polyline stroke="#fff" stroke-width="3" fill-opacity="0" fill="url(#93)" points="92.17500305175781,10 92.17500305175781,0 0,0 0,105.71952819824219 10,105.71952819824219"></polyline> <g transform="translate(10,30)"><g><rect stroke-width="2" class="i-icon-bg" x="0" y="0" width="184.35000610351562" height="65.71953201293945" fill-opacity="0"></rect> <!----> <!----> </g> <g transform="translate(10,3)"><g class="tp-name" transform="translate(12.569999694824219,0)"><g><path d="M33.57-32.34L32.17-28.13L2.29-28.13L3.87-32.34L13.36-32.34Q11.07-34.63 8.44-34.80L8.44-34.80L10.37-37.79Q13.01-37.79 13.89-34.98L13.89-34.98Q20.21-37.44 24.79-37.62L24.79-37.62Q27.25-37.44 27.42-35.86L27.42-35.86Q27.42-33.93 24.26-32.34L24.26-32.34L33.57-32.34ZM6.15-21.62L4.39-21.62L5.98-25.66L18.98-25.66L18.28-21.97L18.28 0L16.35 0L16.35-15.47Q16.52-21.97 14.24-21.62L14.24-21.62L10.37-21.62Q7.38-24.43 6.86 0L6.86 0L5.45 0Q5.63-19.86 6.15-21.62L6.15-21.62ZM29.88-22.50L29.88 4.57L28.13 4.57L28.13-21.45L27.25-22.68L27.95-26.19L30.59-26.19L29.88-22.50ZM23.91-21.80L23.91-3.34L22.15-3.34L22.15-20.74L21.27-21.97L21.97-25.49L24.61-25.49L23.91-21.80ZM16.17-11.60L14.59-7.73L7.21-7.73L8.79-11.60L16.17-11.60ZM16.17-18.46L14.77-14.59L7.91-14.59L9.32-18.46L16.17-18.46ZM21.97-36.04L21.97-36.04Q19.69-36.04 14.24-34.10L14.24-34.10L14.41-32.87L13.89-32.34L21.80-32.34Q23.55-34.28 23.55-35.16L23.55-35.16Q23.55-36.04 21.97-36.04ZM57.83-12.83L57.83-0.70L56.07-0.70L56.07-9.14Q56.07-12.48 54.84-12.83L54.84-12.83Q52.56-13.89 51.86 0L51.86 0L50.80 0Q50.98-10.20 51.33-12.83L51.33-12.83L49.39-12.83L50.80-16.52L56.95-16.52L56.95-19.51L49.22-19.51L50.45-23.20L69.61-23.20L68.38-19.51L61.00-19.51Q58.89-19.69 58.71-16.52L58.71-16.52L68.38-16.52L67.85-13.71L67.85 1.41L66.09 1.41L66.09-8.09Q66.27-13.18 63.81-12.83L63.81-12.83L62.75-12.83L62.75-0.70L61.00-0.70L61.00-9.14Q61.00-12.48 59.77-12.83L59.77-12.83L57.83-12.83ZM49.92-11.07L49.92-11.07L50.63-10.37Q47.29-4.39 44.30-4.57L44.30-4.57L38.14-4.57L39.73-8.79L44.30-8.79L44.47-8.79Q46.23-15.82 46.23-19.16L46.23-19.16Q46.41-21.27 44.82-21.09L44.82-21.09Q44.12-21.09 42.71-19.51L42.71-19.51Q42.89-18.46 42.89-15.29L42.89-15.29Q43.07-12.66 43.07-11.07L43.07-11.07L41.84-10.90Q41.13-20.57 38.85-19.51L38.85-19.51L40.43-24.08Q42.19-24.26 42.54-21.09L42.54-21.09Q44.65-24.08 46.41-23.91L46.41-23.91Q48.69-23.91 48.69-20.57L48.69-20.57Q48.87-17.40 45.53-8.96L45.53-8.96Q46.93-9.14 49.92-11.07ZM52.91-26.02L52.91-24.96L51.15-24.96L51.15-31.11L50.45-32.34L51.15-35.68L53.44-35.68L52.91-32.17L52.91-29.71L58.36-29.71L58.36-32.52L57.48-33.57L58.18-37.27L60.47-37.27L60.12-33.40L60.12-29.71L65.92-29.71L64.51-26.02L52.91-26.02ZM50.10-31.29L48.52-26.89L38.32-26.89L39.90-31.29L50.10-31.29ZM67.50-31.99L67.50-25.14L65.92-25.14L65.92-30.94L65.04-32.17L65.74-35.68L68.03-35.68L67.50-31.99ZM46.76-31.99L46.05-31.29Q44.47-34.10 41.13-34.10L41.13-34.10L42.89-37.62Q46.41-37.79 46.76-31.99L46.76-31.99ZM90.70-37.27L90.70-37.27L93.87-35.33Q92.64-34.63 91.93-31.64L91.93-31.64L97.73-31.64L97.73-32.87L96.86-33.93L97.56-37.44L100.20-37.44L99.67-34.10L99.67-31.64L104.41-31.64L102.83-27.25L99.67-27.25L99.67-17.05L105.47-17.05L103.89-12.48L99.67-12.48L99.67 3.69L97.73 3.69L97.73-12.48L89.65-12.48Q89.47-10.20 89.12-5.10L89.12-5.10Q88.95-1.76 88.77 0L88.77 0L87.36 0L87.89-12.48L81.91-12.48L83.50-17.05L88.07-17.05Q88.07-18.98 88.24-22.15L88.24-22.15Q88.24-25.84 88.42-27.25L88.42-27.25L84.02-27.25L85.61-31.64L88.95-31.64Q89.30-36.04 90.70-37.27ZM81.04-24.79L79.63-20.21L79.63-8.26Q81.56-8.09 83.50-10.72L83.50-10.72L84.38-10.20Q82.09-2.99 79.45-3.52L79.45-3.52L77.70-3.52L77.70-14.24Q77.70-20.74 75.76-20.39L75.76-20.39L74.00-20.39L75.76-24.79L81.04-24.79ZM97.73-27.25L91.05-27.25Q90.53-23.55 90-17.05L90-17.05L97.73-17.05L97.73-27.25ZM82.62-34.63L81.04-30.06L75.06-30.06L76.82-34.63L82.62-34.63ZM141.50 5.80L140.45 5.98Q138.16-4.39 135.70-3.16L135.70-3.16L110.21-3.16L111.62-6.86L124.63-6.86L124.63-9.32L113.55-9.32L114.79-12.66L124.63-12.66Q124.45-15.29 123.05-15.12L123.05-15.12L117.77-15.12L119.00-18.46L132.01-18.46Q132.71-18.46 133.24-18.46L133.24-18.46Q133.07-21.09 130.43-21.09L130.43-21.09L121.11-21.09Q117.95-21.45 117.07-14.06L117.07-14.06L115.66-14.06Q115.84-15.64 116.02-18.11L116.02-18.11Q116.19-20.39 116.37-21.09L116.37-21.09L114.79-21.09L116.02-24.43L135.88-24.43L135.18-21.62L135.18-16.88Q135.70-16.00 136.41-14.41L136.41-14.41L135.70-13.71Q133.77-15.29 131.13-15.12L131.13-15.12L126.56-15.12L126.56-12.66L137.29-12.66L136.05-9.32L126.56-9.32L126.56-6.86L135.88-6.86Q140.45-8.79 141.50 5.80L141.50 5.80ZM132.89-30.06L140.10-30.06L138.69-21.97L137.29-22.32L138.16-26.37L113.55-26.37L113.55-21.97L112.15-21.97Q112.15-25.31 111.09-26.02L111.09-26.02L112.50-30.06L118.83-30.06Q116.72-33.22 113.38-32.87L113.38-32.87L114.79-36.21Q118.48-36.74 119.36-32.70L119.36-32.70Q121.46-33.75 123.93-34.63L123.93-34.63L124.63-37.62L127.09-37.62L126.74-35.51Q130.25-36.39 133.42-36.39L133.42-36.39Q136.76-36.39 136.93-34.28L136.93-34.28Q137.11-32.70 132.89-30.06L132.89-30.06ZM130.61-34.28L130.61-34.28Q129.38-34.28 126.91-33.93L126.91-33.93Q128.67-34.28 126.56-33.93L126.56-33.93L126.56-30.06L131.66-30.06Q132.54-31.29 132.71-32.52L132.71-32.52Q132.71-34.28 130.61-34.28ZM119.53-31.64L119.88-30.59L119.00-30.06L124.63-30.06L124.63-33.05L124.45-33.40Q123.57-33.22 121.29-32.34L121.29-32.34Q120.23-31.82 119.53-31.64L119.53-31.64Z" transform="translate(-2.28515625, 37.79296875)"></path></g> <!----> <!----> <!----> <!----> <!----> <!----> <!----></g> <g class="tp-slogan" transform="translate(0,50.77000045776367)"><!----> <!----> <!----> <g><path d="M6.42-3.89L2.20-3.89L2.20 0L1.03 0L1.03-8.58L6.98-8.58L6.98-7.59L2.20-7.59L2.20-4.92L6.42-4.92L6.42-3.89ZM12.28-3.70L9.47-3.70L9.47 0L8.30 0L8.30-8.58L12.28-8.58Q15.14-8.58 15.14-6.28L15.14-6.28Q15.14-4.88 13.92-4.22L13.92-4.22Q14.95-3.94 14.95-2.58L14.95-2.58L15.05-1.03Q15-0.38 15.47-0.19L15.47-0.19L15.47 0L14.02 0Q13.88-0.61 13.83-2.16L13.83-2.16Q13.88-3.70 12.28-3.70L12.28-3.70ZM12.38-7.64L9.47-7.64L9.47-4.69L12.19-4.69Q13.92-4.69 13.92-6.19L13.92-6.19Q13.92-7.64 12.38-7.64L12.38-7.64ZM23.58-4.27L23.58-4.27Q23.39-7.64 20.58-7.83L20.58-7.83Q17.72-7.69 17.58-4.27L17.58-4.27Q17.72-0.94 20.58-0.80L20.58-0.80Q23.39-0.98 23.58-4.27ZM24.75-4.27L24.75-4.27Q24.47 0 20.58 0.14L20.58 0.14Q16.64 0 16.36-4.27L16.36-4.27Q16.59-8.72 20.58-8.81L20.58-8.81Q24.47-8.67 24.75-4.27ZM27.52-8.58L31.83-1.64L31.83-8.58L32.95-8.58L32.95 0L31.64 0L27.28-6.94L27.23-6.94L27.23 0L26.11 0L26.11-8.58L27.52-8.58ZM36.94-7.59L34.03-7.59L34.03-8.58L40.97-8.58L40.97-7.59L38.06-7.59L38.06 0L36.94 0L36.94-7.59ZM47.63-3.47L47.63-2.58L41.58-2.58L41.58-3.47L47.63-3.47ZM50.30-1.03L55.45-1.03L55.45 0L49.13 0L49.13-8.58L55.36-8.58L55.36-7.59L50.30-7.59L50.30-4.92L54.98-4.92L54.98-3.89L50.30-3.89L50.30-1.03ZM58.36-8.58L62.67-1.64L62.67-8.58L63.80-8.58L63.80 0L62.48 0L58.13-6.94L58.08-6.94L58.08 0L56.95 0L56.95-8.58L58.36-8.58ZM69.09 0L65.63 0L65.63-8.58L69.14-8.58Q72.61-8.39 72.75-4.41L72.75-4.41Q72.56-0.09 69.09 0L69.09 0ZM68.95-7.64L66.80-7.64L66.80-0.98L69.05-0.98Q71.48-1.13 71.58-4.31L71.58-4.31Q71.53-7.55 68.95-7.64L68.95-7.64ZM77.53-8.58L78.70-8.58L78.70-1.03L83.06-1.03L83.06 0L77.53 0L77.53-8.58ZM85.50-1.03L90.66-1.03L90.66 0L84.33 0L84.33-8.58L90.56-8.58L90.56-7.59L85.50-7.59L85.50-4.92L90.19-4.92L90.19-3.89L85.50-3.89L85.50-1.03ZM99.33-6.05L99.33-6.05L98.20-6.05Q97.78-7.78 95.81-7.83L95.81-7.83Q93.09-7.69 93-4.36L93-4.36Q93-0.80 95.86-0.80L95.86-0.80Q97.83-0.84 98.30-3.19L98.30-3.19L99.42-3.19Q98.91 0.05 95.63 0.14L95.63 0.14Q91.88 0 91.78-4.31L91.78-4.31Q91.97-8.63 95.81-8.81L95.81-8.81Q98.86-8.72 99.33-6.05ZM102.98-7.59L100.08-7.59L100.08-8.58L107.02-8.58L107.02-7.59L104.11-7.59L104.11 0L102.98 0L102.98-7.59ZM113.72-3.19L113.72-8.58L114.89-8.58L114.89-3.05Q114.75 0.05 111.38 0.14L111.38 0.14Q108.23 0.05 108.09-2.86L108.09-2.86L108.09-8.58L109.27-8.58L109.27-3.19Q109.31-0.84 111.42-0.80L111.42-0.80Q113.72-0.84 113.72-3.19L113.72-3.19ZM120.80-3.70L117.98-3.70L117.98 0L116.81 0L116.81-8.58L120.80-8.58Q123.66-8.58 123.66-6.28L123.66-6.28Q123.66-4.88 122.44-4.22L122.44-4.22Q123.47-3.94 123.47-2.58L123.47-2.58L123.56-1.03Q123.52-0.38 123.98-0.19L123.98-0.19L123.98 0L122.53 0Q122.39-0.61 122.34-2.16L122.34-2.16Q122.39-3.70 120.80-3.70L120.80-3.70ZM120.89-7.64L117.98-7.64L117.98-4.69L120.70-4.69Q122.44-4.69 122.44-6.19L122.44-6.19Q122.44-7.64 120.89-7.64L120.89-7.64ZM126.61-1.03L131.77-1.03L131.77 0L125.44 0L125.44-8.58L131.67-8.58L131.67-7.59L126.61-7.59L126.61-4.92L131.30-4.92L131.30-3.89L126.61-3.89L126.61-1.03ZM137.77-5.06L142.27-5.06L142.27-8.58L143.44-8.58L143.44 0L142.27 0L142.27-3.98L137.77-3.98L137.77 0L136.59 0L136.59-8.58L137.77-8.58L137.77-5.06ZM150.89 0L150.05-2.48L146.58-2.48L145.69 0L144.52 0L147.75-8.58L149.06-8.58L152.16 0L150.89 0ZM148.31-7.31L146.95-3.52L149.63-3.52L148.36-7.31L148.31-7.31ZM153.19-8.58L154.36-8.58L154.36-1.03L158.72-1.03L158.72 0L153.19 0L153.19-8.58ZM159.84-8.58L161.02-8.58L161.02-1.03L165.38-1.03L165.38 0L159.84 0L159.84-8.58Z" transform="translate(-1.03125, 8.8125)"></path></g></g></g></g></g></svg>