<svg data-v-06c5d478="" version="1.0" xmlns="http://www.w3.org/2000/svg" xmlns:xlink="http://www.w3.org/1999/xlink" width="100%" height="100%" viewBox="0 0 340.000000 250.000000" preserveAspectRatio="xMidYMid meet" color-interpolation-filters="sRGB" class="el-tooltip" style="margin: auto;"><rect data-v-06c5d478="" x="0" y="0" width="100%" height="100%" fill="#f9f8eb" fill-opacity="1"></rect>  <g data-v-06c5d478="" fill="#fd5f00" class="newinitialsvg-g newinitialsvg" transform="translate(85.64242553710938,92.71759796142578)"><g class="tp-name" transform="translate(0,0)"><g transform="translate(0, 0)"><g fill="#fd5f00" transform="translate(0,3)"><path d="M23.91-37.79L23.91-37.79Q22.85-37.09 22.94-36.83Q23.03-36.56 23.64-36.65Q24.26-36.74 24.70-36.74Q25.14-36.74 25.49-36.65Q25.84-36.56 26.02-36.21Q26.19-35.86 26.28-35.68Q26.37-35.51 26.10-34.45Q25.84-33.40 25.49-32.70Q25.14-31.99 24.79-31.46Q24.43-30.94 24.08-30.41Q23.73-29.88 23.64-29.88Q23.55-29.88 23.47-29.88Q23.38-29.88 23.38-30.23Q23.38-30.59 23.55-30.94Q23.73-31.29 23.73-31.46Q23.73-31.64 23.82-31.99Q23.91-32.34 23.91-32.61Q23.91-32.87 23.91-33.22Q23.91-33.57 23.73-34.10Q23.55-34.63 23.38-34.63Q23.20-34.63 23.12-34.63Q23.03-34.63 22.76-34.37Q22.50-34.10 22.50-33.93Q22.50-33.75 22.50-33.40Q22.50-33.05 20.83-30.76Q19.16-28.48 18.98-28.48Q18.81-28.48 18.72-28.48Q18.63-28.48 18.37-28.74Q18.11-29.00 17.75-29.36Q17.40-29.71 17.05-30.06Q16.70-30.41 16.35-30.67Q16.00-30.94 16.00-30.94Q16.00-30.94 15.64-30.94Q15.29-30.94 15.29-30.41Q15.29-29.88 15.64-29.36Q16.00-28.83 16.08-28.65Q16.17-28.48 16.35-28.30Q16.52-28.13 16.52-27.95Q16.52-27.77 16.70-27.33Q16.88-26.89 17.05-26.63Q17.23-26.37 17.58-26.19Q17.93-26.02 18.28-25.75Q18.63-25.49 18.81-25.31Q18.98-25.14 18.98-24.87Q18.98-24.61 18.98-24.43Q18.98-24.26 18.98-24.26Q18.98-24.26 19.25-24.26Q19.51-24.26 19.95-24.35Q20.39-24.43 20.39-24.26Q20.39-24.08 19.95-23.82Q19.51-23.55 16.61-21.80Q13.71-20.04 11.16-18.63Q8.61-17.23 8.17-17.23Q7.73-17.23 7.65-17.23Q7.56-17.23 7.29-17.31Q7.03-17.40 6.77-17.49Q6.50-17.58 6.24-17.75Q5.98-17.93 5.71-18.02Q5.45-18.11 5.27-18.11Q5.10-18.11 4.92-18.11Q4.75-18.11 4.66-18.11Q4.57-18.11 4.57-17.93Q4.57-17.75 4.57-17.49Q4.57-17.23 5.01-16.52Q5.45-15.82 5.89-15.38Q6.33-14.94 6.86-14.59Q7.38-14.24 8.44-13.71Q9.49-13.18 9.84-13.18Q10.20-13.18 10.55-13.18Q10.90-13.18 11.25-13.45Q11.60-13.71 13.10-15.12Q14.59-16.52 15.12-16.88Q15.64-17.23 16.08-17.67Q16.52-18.11 16.70-18.19Q16.88-18.28 16.96-18.46Q17.05-18.63 17.58-18.98Q18.11-19.34 18.54-19.69Q18.98-20.04 20.13-21.01Q21.27-21.97 21.53-21.97Q21.80-21.97 21.18-21.09Q20.57-20.21 19.51-18.81Q18.46-17.40 16.00-14.94Q13.54-12.48 12.66-11.87Q11.78-11.25 11.34-10.99Q10.90-10.72 10.90-10.72Q10.90-10.72 10.90-10.46Q10.90-10.20 10.99-10.02Q11.07-9.84 11.07-9.58Q11.07-9.32 11.07-9.14Q11.07-8.96 11.16-8.44Q11.25-7.91 11.69-7.03Q12.13-6.15 12.30-6.15Q12.48-6.15 12.57-6.15Q12.66-6.15 13.27-6.68Q13.89-7.21 14.59-8.00Q15.29-8.79 16.00-9.40Q16.70-10.02 17.31-10.63Q17.93-11.25 18.02-11.25Q18.11-11.25 18.19-11.25Q18.28-11.25 18.28-11.16Q18.28-11.07 18.28-10.63Q18.28-10.20 18.19-9.84Q18.11-9.49 18.11-9.23Q18.11-8.96 18.19-8.88Q18.28-8.79 18.37-8.70Q18.46-8.61 18.46-8.26Q18.46-7.91 18.54-7.65Q18.63-7.38 18.63-6.86Q18.63-6.33 18.72-6.15Q18.81-5.98 19.07-5.98Q19.34-5.98 19.60-5.98Q19.86-5.98 21.01-6.77Q22.15-7.56 22.85-8.26Q23.55-8.96 24.17-9.58Q24.79-10.20 25.05-10.55Q25.31-10.90 25.40-11.34Q25.49-11.78 25.49-11.95Q25.49-12.13 25.58-12.30Q25.66-12.48 25.75-12.57Q25.84-12.66 26.02-12.83Q26.19-13.01 26.72-13.10Q27.25-13.18 27.42-13.10Q27.60-13.01 27.77-12.92Q27.95-12.83 27.95-12.74Q27.95-12.66 27.95-11.51Q27.95-10.37 27.77-8.09Q27.60-5.80 27.42-3.69Q27.25-1.58 27.16-1.23Q27.07-0.88 26.89-0.44Q26.72 0 26.54 0.09Q26.37 0.18 25.93-0.09Q25.49-0.35 25.14-0.53Q24.79-0.70 24.52-0.70Q24.26-0.70 24.35-0.44Q24.43-0.18 24.52-0.09Q24.61 0 24.70 0.26Q24.79 0.53 24.79 0.70Q24.79 0.88 24.87 1.14Q24.96 1.41 25.14 1.85Q25.31 2.29 25.49 2.55Q25.66 2.81 26.19 3.69L26.19 3.69L27.42 3.69Q28.48 3.69 28.56 3.69Q28.65 3.69 28.92 3.43Q29.18 3.16 29.27 3.08Q29.36 2.99 29.44 2.72Q29.53 2.46 29.62 2.29Q29.71 2.11 29.79 2.02Q29.88 1.93 29.97 1.76Q30.06 1.58 30.06 1.41Q30.06 1.23 30.41 0.53Q30.76-0.18 30.94-1.85Q31.11-3.52 31.11-5.01Q31.11-6.50 31.11-6.77Q31.11-7.03 31.11-7.82Q31.11-8.61 31.11-9.23Q31.11-9.84 31.11-12.30L31.11-12.30L31.64-12.48Q31.82-12.48 32.17-12.39Q32.52-12.30 33.40-11.87Q34.28-11.43 34.89-11.07Q35.51-10.72 36.12-10.46Q36.74-10.20 36.83-10.20Q36.91-10.20 37.00-10.20Q37.09-10.20 37.27-10.11Q37.44-10.02 37.62-9.93Q37.79-9.84 38.23-9.67Q38.67-9.49 38.85-9.49Q39.02-9.49 39.20-9.93Q39.38-10.37 39.55-10.63Q39.73-10.90 39.73-10.99Q39.73-11.07 39.64-11.34Q39.55-11.60 39.55-11.69Q39.55-11.78 39.46-12.04Q39.38-12.30 39.29-12.48Q39.20-12.66 39.20-13.01Q39.20-13.36 38.85-13.62Q38.50-13.89 37.35-14.24Q36.21-14.59 35.68-14.68Q35.16-14.77 34.45-15.03Q33.75-15.29 33.40-15.38Q33.05-15.47 32.70-15.56Q32.34-15.64 32.08-15.73Q31.82-15.82 31.73-15.82Q31.64-15.82 31.46-15.82Q31.29-15.82 31.11-16.17Q30.94-16.52 30.85-16.96Q30.76-17.40 30.59-18.28Q30.41-19.16 30.06-20.13Q29.71-21.09 29.36-21.53Q29.00-21.97 28.83-22.15Q28.65-22.32 28.56-22.32Q28.48-22.32 27.95-22.24Q27.42-22.15 26.98-22.15Q26.54-22.15 26.46-22.15Q26.37-22.15 26.37-22.32Q26.37-22.50 26.37-22.59Q26.37-22.68 26.72-23.12Q27.07-23.55 27.60-23.99Q28.13-24.43 28.92-25.22Q29.71-26.02 30.15-26.37Q30.59-26.72 31.82-27.42Q33.05-28.13 33.66-28.48Q34.28-28.83 34.37-29.09Q34.45-29.36 34.10-29.71Q33.75-30.06 33.57-30.23Q33.40-30.41 33.13-30.41Q32.87-30.41 32.26-30.50Q31.64-30.59 31.20-30.59Q30.76-30.59 30.32-30.67Q29.88-30.76 29.79-30.67Q29.71-30.59 29.71-30.59Q29.71-30.59 29.53-30.41Q29.36-30.23 29.18-30.06Q29.00-29.88 28.92-29.71Q28.83-29.53 28.39-29.27Q27.95-29.00 27.69-28.83Q27.42-28.65 26.89-28.30Q26.37-27.95 26.02-27.77Q25.66-27.60 24.96-27.07Q24.26-26.54 23.91-26.37Q23.55-26.19 23.38-26.10Q23.20-26.02 23.12-26.19Q23.03-26.37 23.03-26.54Q23.03-26.72 23.38-27.07Q23.73-27.42 23.99-27.42Q24.26-27.42 24.35-27.42Q24.43-27.42 24.70-27.69Q24.96-27.95 25.31-28.30Q25.66-28.65 26.63-29.79Q27.60-30.94 28.48-31.82Q29.36-32.70 29.62-32.78Q29.88-32.87 30.15-32.96Q30.41-33.05 30.59-33.49Q30.76-33.93 30.76-34.28Q30.76-34.63 30.59-35.24Q30.41-35.86 29.71-36.65Q29.00-37.44 28.30-37.71Q27.60-37.97 27.42-38.06Q27.25-38.14 26.81-38.23Q26.37-38.32 26.10-38.32Q25.84-38.32 25.31-38.32Q24.79-38.32 24.70-38.23Q24.61-38.14 24.26-37.97Q23.91-37.79 23.91-37.79ZM27.42-18.81L27.42-18.81Q27.60-18.46 27.69-18.11Q27.77-17.75 27.86-17.49Q27.95-17.23 27.95-16.79Q27.95-16.35 27.95-16.26Q27.95-16.17 27.77-16.08Q27.60-16.00 27.42-15.91Q27.25-15.82 26.89-15.73Q26.54-15.64 26.19-15.56Q25.84-15.47 25.22-15.47Q24.61-15.47 24.61-15.47Q24.61-15.47 24.26-15.73Q23.91-16.00 23.20-16.44Q22.50-16.88 22.59-16.96Q22.68-17.05 23.47-17.75Q24.26-18.46 25.31-19.25Q26.37-20.04 26.63-20.04Q26.89-20.04 27.16-19.42Q27.42-18.81 27.42-18.81ZM22.32-14.06L22.32-14.06Q22.50-13.89 22.59-13.80Q22.68-13.71 22.68-13.62Q22.68-13.54 22.68-13.36Q22.68-13.18 22.32-12.66Q21.97-12.13 21.53-11.69Q21.09-11.25 20.92-11.07Q20.74-10.90 20.48-10.90Q20.21-10.90 20.30-11.07Q20.39-11.25 20.39-11.34Q20.39-11.43 20.48-11.78Q20.57-12.13 20.65-12.39Q20.74-12.66 20.92-13.27Q21.09-13.89 21.27-14.15Q21.45-14.41 21.62-14.41Q21.80-14.41 21.80-14.41Q21.80-14.41 21.97-14.33Q22.15-14.24 22.24-14.15Q22.32-14.06 22.32-14.06Z" transform="translate(-4.5703125, 38.7890625)"></path></g></g><g transform="translate(39.15625, 0)"><g fill="#fd5f00" transform="translate(0,3)"><path d="M25.66-38.50L25.66-38.50Q24.08-38.14 23.47-37.44Q22.85-36.74 23.20-36.39Q23.55-36.04 23.64-35.95Q23.73-35.86 23.99-35.86Q24.26-35.86 24.70-35.95Q25.14-36.04 25.58-36.04Q26.02-36.04 26.19-36.04Q26.37-36.04 26.63-35.95Q26.89-35.86 27.25-35.68Q27.60-35.51 27.86-35.24Q28.13-34.98 28.13-34.80Q28.13-34.63 28.13-34.45Q28.13-34.28 27.25-33.49Q26.37-32.70 25.93-32.34Q25.49-31.99 24.43-31.46Q23.38-30.94 23.12-30.59Q22.85-30.23 23.38-30.06Q23.91-29.88 24.17-29.79Q24.43-29.71 24.35-29.44Q24.26-29.18 23.99-29.09Q23.73-29.00 23.64-29.00Q23.55-29.00 23.12-29.09Q22.68-29.18 22.41-29.36Q22.15-29.53 21.80-29.71Q21.45-29.88 21.18-29.97Q20.92-30.06 20.83-30.06Q20.74-30.06 20.57-30.06Q20.39-30.06 20.13-30.23Q19.86-30.41 19.86-30.59Q19.86-30.76 19.86-31.03Q19.86-31.29 19.51-31.90Q19.16-32.52 18.90-32.78Q18.63-33.05 18.28-33.31Q17.93-33.57 16.61-34.37Q15.29-35.16 14.41-35.42Q13.54-35.68 13.18-35.86Q12.83-36.04 12.57-36.04Q12.30-36.04 11.51-36.04Q10.72-36.04 9.93-36.04Q9.14-36.04 8.96-36.04Q8.79-36.04 8.53-35.86Q8.26-35.68 8.09-35.60Q7.91-35.51 7.73-35.33Q7.56-35.16 7.56-35.07Q7.56-34.98 7.47-34.72Q7.38-34.45 7.73-34.19Q8.09-33.93 8.79-33.57Q9.49-33.22 10.11-33.05Q10.72-32.87 11.16-32.43Q11.60-31.99 11.60-31.73Q11.60-31.46 11.60-31.29Q11.60-31.11 9.58-26.98Q7.56-22.85 7.29-22.68Q7.03-22.50 6.77-22.15Q6.50-21.80 6.68-21.09Q6.86-20.39 7.38-19.95Q7.91-19.51 8.17-19.25Q8.44-18.98 8.44-18.98Q8.44-18.98 8.79-18.98Q9.14-18.98 9.67-19.07Q10.20-19.16 10.28-19.07Q10.37-18.98 10.11-18.28Q9.84-17.58 9.76-17.23Q9.67-16.88 9.58-16.52Q9.49-16.17 9.40-16.08Q9.32-16.00 9.32-15.82Q9.32-15.64 9.32-15.38Q9.32-15.12 9.23-15.03Q9.14-14.94 8.88-14.15Q8.61-13.36 8.53-13.01Q8.44-12.66 8.44-12.04Q8.44-11.43 8.44-11.07Q8.44-10.72 8.44-10.63Q8.44-10.55 8.70-10.20Q8.96-9.84 9.40-9.32Q9.84-8.79 10.20-8.61Q10.55-8.44 10.81-8.53Q11.07-8.61 11.25-8.61Q11.43-8.61 11.69-9.05Q11.95-9.49 11.95-9.67Q11.95-9.84 11.95-9.93Q11.95-10.02 12.13-10.28Q12.30-10.55 12.39-10.90Q12.48-11.25 12.66-11.60Q12.83-11.95 13.10-12.57Q13.36-13.18 13.45-13.54Q13.54-13.89 13.80-14.50Q14.06-15.12 14.24-15.47Q14.41-15.82 14.50-15.82Q14.59-15.82 14.77-15.82Q14.94-15.82 14.94-15.47Q14.94-15.12 14.68-14.15Q14.41-13.18 14.06-12.13Q13.71-11.07 13.62-10.11Q13.54-9.14 13.45-7.29Q13.36-5.45 13.27-4.92Q13.18-4.39 13.27-4.31Q13.36-4.22 13.45-4.13Q13.54-4.04 13.62-3.96Q13.71-3.87 13.80-3.78Q13.89-3.69 13.89-3.69Q13.89-3.69 13.97-3.69Q14.06-3.69 14.24-3.60Q14.41-3.52 14.59-3.43Q14.77-3.34 15.12-3.08Q15.47-2.81 16.00-2.64Q16.52-2.46 16.79-2.55Q17.05-2.64 17.40-2.72Q17.75-2.81 17.93-3.25Q18.11-3.69 18.11-4.22Q18.11-4.75 18.11-5.01Q18.11-5.27 18.19-5.54Q18.28-5.80 18.28-5.98Q18.28-6.15 18.37-6.24Q18.46-6.33 18.63-6.77Q18.81-7.21 18.90-7.56Q18.98-7.91 19.25-8.79Q19.51-9.67 19.69-9.76Q19.86-9.84 20.30-9.49Q20.74-9.14 21.36-8.70Q21.97-8.26 22.15-8.26Q22.32-8.26 22.59-8.88Q22.85-9.49 23.03-9.93Q23.20-10.37 23.38-10.55Q23.55-10.72 23.82-10.72Q24.08-10.72 24.26-10.72Q24.43-10.72 24.52-10.55Q24.61-10.37 24.61-10.11Q24.61-9.84 24.61-9.49Q24.61-9.14 24.87-8.44Q25.14-7.73 25.49-7.47Q25.84-7.21 26.02-6.94Q26.19-6.68 26.28-6.68Q26.37-6.68 26.54-6.86Q26.72-7.03 26.81-7.03Q26.89-7.03 26.98-7.29Q27.07-7.56 27.16-7.73Q27.25-7.91 27.33-8.44Q27.42-8.96 27.69-9.67Q27.95-10.37 28.04-10.46Q28.13-10.55 28.21-10.63Q28.30-10.72 28.48-10.72Q28.65-10.72 28.83-10.55Q29.00-10.37 29.62-10.11Q30.23-9.84 30.32-9.67Q30.41-9.49 30.50-8.61Q30.59-7.73 30.76-6.24Q30.94-4.75 30.85-4.22Q30.76-3.69 30.50-2.64Q30.23-1.58 29.71 0.35Q29.18 2.29 29.18 2.64Q29.18 2.99 29.27 3.16Q29.36 3.34 29.53 3.52Q29.71 3.69 30.32 3.60Q30.94 3.52 31.46 3.25Q31.99 2.99 32.43 2.81Q32.87 2.64 32.96 2.55Q33.05 2.46 33.22 2.02Q33.40 1.58 33.66 1.14Q33.93 0.70 33.93 0.44Q33.93 0.18 34.01-0.70Q34.10-1.58 34.10-2.11Q34.10-2.64 34.10-3.25Q34.10-3.87 34.10-4.04Q34.10-4.22 33.84-5.80Q33.57-7.38 33.57-7.38Q33.57-7.38 33.66-7.56Q33.75-7.73 33.93-7.91Q34.10-8.09 34.19-8.17Q34.28-8.26 34.72-8.35Q35.16-8.44 35.86-8.53Q36.56-8.61 37.97-9.32Q39.38-10.02 40.08-10.72Q40.78-11.43 41.57-12.22Q42.36-13.01 42.63-13.71Q42.89-14.41 43.07-15.56Q43.24-16.70 43.33-17.75Q43.42-18.81 43.33-19.16Q43.24-19.51 42.89-19.86Q42.54-20.21 42.36-20.39Q42.19-20.57 42.10-20.57Q42.01-20.57 41.04-20.57Q40.08-20.57 38.85-20.57Q37.62-20.57 36.74-20.48Q35.86-20.39 34.98-20.04Q34.10-19.69 33.40-19.42Q32.70-19.16 32.43-19.07Q32.17-18.98 31.90-19.25Q31.64-19.51 31.38-19.69Q31.11-19.86 31.20-19.95Q31.29-20.04 31.73-20.30Q32.17-20.57 32.61-20.74Q33.05-20.92 33.22-21.18Q33.40-21.45 33.40-21.88Q33.40-22.32 33.40-22.94Q33.40-23.55 32.96-23.82Q32.52-24.08 31.55-24.08Q30.59-24.08 30.23-24.08Q29.88-24.08 29.71-24.17Q29.53-24.26 29.53-24.35Q29.53-24.43 29.53-24.61Q29.53-24.79 30.06-25.58Q30.59-26.37 31.46-27.42Q32.34-28.48 32.43-28.65Q32.52-28.83 32.78-29.09Q33.05-29.36 33.13-29.53Q33.22-29.71 33.31-29.88Q33.40-30.06 33.66-30.41Q33.93-30.76 34.19-30.94Q34.45-31.11 34.80-31.55Q35.16-31.99 35.16-32.08Q35.16-32.17 35.16-32.43Q35.16-32.70 35.07-32.87Q34.98-33.05 35.07-33.31Q35.16-33.57 35.24-33.75Q35.33-33.93 35.33-34.10Q35.33-34.28 35.42-34.45Q35.51-34.63 35.51-34.72Q35.51-34.80 35.51-35.16Q35.51-35.51 34.28-36.47Q33.05-37.44 31.90-37.88Q30.76-38.32 30.15-38.50Q29.53-38.67 28.39-38.76Q27.25-38.85 26.46-38.67Q25.66-38.50 25.66-38.50ZM19.51-28.65L19.51-28.65Q19.69-28.48 20.13-28.13Q20.57-27.77 21.01-27.33Q21.45-26.89 21.88-26.54Q22.32-26.19 22.85-25.75Q23.38-25.31 23.64-25.14Q23.91-24.96 24.17-24.79Q24.43-24.61 24.70-24.43Q24.96-24.26 24.96-24.26Q24.96-24.26 25.05-23.99Q25.14-23.73 24.61-23.29Q24.08-22.85 23.73-22.85Q23.38-22.85 23.29-22.85Q23.20-22.85 22.94-22.59Q22.68-22.32 22.32-21.71Q21.97-21.09 21.45-20.30Q20.92-19.51 19.60-16.88Q18.28-14.24 18.19-13.80Q18.11-13.36 18.02-13.27Q17.93-13.18 17.75-12.74Q17.58-12.30 17.40-11.95Q17.23-11.60 17.05-11.07Q16.88-10.55 16.70-10.37Q16.52-10.20 16.44-10.20Q16.35-10.20 16.08-10.20Q15.82-10.20 15.91-10.72Q16.00-11.25 16.52-12.39Q17.05-13.54 17.49-14.50Q17.93-15.47 18.02-15.73Q18.11-16.00 18.11-16.35Q18.11-16.70 18.11-17.40Q18.11-18.11 17.93-18.28Q17.75-18.46 17.14-18.46Q16.52-18.46 16.08-18.46Q15.64-18.46 15.38-18.37Q15.12-18.28 14.68-18.11Q14.24-17.93 13.71-17.67Q13.18-17.40 12.92-17.40Q12.66-17.40 12.66-17.58Q12.66-17.75 12.66-17.93Q12.66-18.11 13.10-18.98Q13.54-19.86 13.97-20.30Q14.41-20.74 14.94-21.45Q15.47-22.15 15.56-22.32Q15.64-22.50 15.38-22.76Q15.12-23.03 14.94-23.20Q14.77-23.38 14.68-23.38Q14.59-23.38 13.89-23.38Q13.18-23.38 12.74-23.29Q12.30-23.20 11.87-23.20Q11.43-23.20 11.34-23.12Q11.25-23.03 10.72-22.85Q10.20-22.68 10.02-22.94Q9.84-23.20 10.11-23.64Q10.37-24.08 10.46-24.26Q10.55-24.43 10.81-24.87Q11.07-25.31 11.43-25.58Q11.78-25.84 12.48-26.54Q13.18-27.25 13.80-27.60Q14.41-27.95 15.38-28.13Q16.35-28.30 16.70-28.30Q17.05-28.30 17.40-28.48Q17.75-28.65 17.93-28.65Q18.11-28.65 18.37-28.83Q18.63-29.00 18.72-29.00Q18.81-29.00 19.16-28.83Q19.51-28.65 19.51-28.65ZM24.61-21.45L24.61-21.45Q25.14-20.74 24.79-20.04Q24.43-19.34 24.08-19.34Q23.73-19.34 23.55-19.34Q23.38-19.34 23.38-19.42Q23.38-19.51 23.38-19.78Q23.38-20.04 23.38-20.48Q23.38-20.92 23.55-21.36Q23.73-21.80 23.91-21.80Q24.08-21.80 24.17-21.80Q24.26-21.80 24.35-21.71Q24.43-21.62 24.52-21.53Q24.61-21.45 24.61-21.45ZM30.06-19.51L30.06-19.51Q30.23-19.51 30.32-19.42Q30.41-19.34 30.41-19.25Q30.41-19.16 30.41-18.72Q30.41-18.28 30.06-17.93Q29.71-17.58 29.09-17.31Q28.48-17.05 28.21-16.88Q27.95-16.70 27.51-16.44Q27.07-16.17 26.89-16.00Q26.72-15.82 26.54-15.64Q26.37-15.47 25.93-15.21Q25.49-14.94 25.31-14.85Q25.14-14.77 24.96-14.68Q24.79-14.59 24.43-14.33Q24.08-14.06 23.91-13.89Q23.73-13.71 23.29-13.36Q22.85-13.01 22.59-12.92Q22.32-12.83 22.06-13.10Q21.80-13.36 21.45-13.62Q21.09-13.89 21.36-14.33Q21.62-14.77 22.50-15.38Q23.38-16.00 23.73-16.17Q24.08-16.35 24.43-16.61Q24.79-16.88 24.96-16.96Q25.14-17.05 25.58-17.31Q26.02-17.58 27.86-18.63Q29.71-19.69 29.79-19.69Q29.88-19.69 29.88-19.69Q29.88-19.69 29.97-19.69Q30.06-19.69 30.06-19.60Q30.06-19.51 30.06-19.51ZM39.20-18.63L39.20-18.63Q39.55-18.28 39.55-18.19Q39.55-18.11 39.55-17.75Q39.55-17.40 39.55-17.14Q39.55-16.88 39.46-16.61Q39.38-16.35 39.38-16.17Q39.38-16.00 39.11-15.64Q38.85-15.29 37.97-14.50Q37.09-13.71 36.56-13.45Q36.04-13.18 35.42-12.83Q34.80-12.48 34.19-12.39Q33.57-12.30 33.40-12.48Q33.22-12.66 33.22-12.74Q33.22-12.83 33.13-13.36Q33.05-13.89 32.96-14.50Q32.87-15.12 32.87-17.40L32.87-17.40L33.22-17.75Q33.57-17.93 34.01-18.02Q34.45-18.11 34.89-18.19Q35.33-18.28 35.77-18.37Q36.21-18.46 36.65-18.63Q37.09-18.81 37.18-18.81Q37.27-18.81 37.62-18.90Q37.97-18.98 38.41-18.98Q38.85-18.98 39.02-18.81Q39.20-18.63 39.20-18.63ZM30.23-14.94L30.23-14.94Q30.59-14.41 30.50-13.89Q30.41-13.36 30.23-13.27Q30.06-13.18 29.88-13.01Q29.71-12.83 29.71-12.83Q29.71-12.83 29.44-12.92Q29.18-13.01 28.56-13.18Q27.95-13.36 27.95-13.80Q27.95-14.24 28.48-14.59Q29.00-14.94 29.27-15.21Q29.53-15.47 29.79-15.47Q30.06-15.47 30.15-15.21Q30.23-14.94 30.23-14.94Z" transform="translate(-6.609375, 38.7890625)"></path></g></g><g transform="translate(79.9208984375, 0)"><g fill="#fd5f00" transform="translate(0,3)"><path d="M25.84-36.74L25.84-36.74Q25.49-36.39 25.49-36.39Q25.49-36.39 25.58-36.12Q25.66-35.86 25.75-35.77Q25.84-35.68 26.02-35.42Q26.19-35.16 26.28-35.07Q26.37-34.98 26.54-34.72Q26.72-34.45 26.98-33.75Q27.25-33.05 27.25-32.52Q27.25-31.99 27.25-31.46Q27.25-30.94 26.98-30.67Q26.72-30.41 25.84-29.44Q24.96-28.48 24.52-28.13Q24.08-27.77 23.64-27.25Q23.20-26.72 22.94-26.46Q22.68-26.19 22.50-25.93Q22.32-25.66 22.06-25.40Q21.80-25.14 21.71-25.14Q21.62-25.14 21.62-25.14Q21.62-25.14 21.45-25.22Q21.27-25.31 21.18-25.49Q21.09-25.66 20.65-26.37Q20.21-27.07 19.60-27.42Q18.98-27.77 18.28-27.69Q17.58-27.60 17.49-27.60Q17.40-27.60 17.31-27.51Q17.23-27.42 17.23-27.42Q17.23-27.42 17.23-27.25Q17.23-27.07 17.58-26.72Q17.93-26.37 18.11-26.37Q18.28-26.37 18.37-26.37Q18.46-26.37 18.90-25.84Q19.34-25.31 19.51-25.05Q19.69-24.79 19.78-24.52Q19.86-24.26 19.86-23.91Q19.86-23.55 19.78-23.55Q19.69-23.55 19.60-23.47Q19.51-23.38 19.34-23.47Q19.16-23.55 18.90-23.73Q18.63-23.91 18.37-24.08Q18.11-24.26 18.02-24.26Q17.93-24.26 17.75-24.17Q17.58-24.08 17.58-23.99Q17.58-23.91 17.49-23.82Q17.40-23.73 17.40-23.64Q17.40-23.55 17.40-23.55Q17.40-23.55 17.75-23.12Q18.11-22.68 18.54-22.24Q18.98-21.80 19.86-20.92Q20.74-20.04 20.65-20.21Q20.57-20.39 20.30-18.37Q20.04-16.35 19.95-15.56Q19.86-14.77 19.60-14.41Q19.34-14.06 18.81-13.80Q18.28-13.54 17.84-13.36Q17.40-13.18 17.14-13.27Q16.88-13.36 16.70-13.54Q16.52-13.71 16.35-14.06Q16.17-14.41 16.00-14.41Q15.82-14.41 15.64-13.89Q15.47-13.36 15.03-12.66Q14.59-11.95 13.97-11.69Q13.36-11.43 13.01-11.95Q12.66-12.48 12.39-12.74Q12.13-13.01 12.22-13.27Q12.30-13.54 12.57-14.59Q12.83-15.64 13.01-16.00Q13.18-16.35 13.27-16.79Q13.36-17.23 13.45-17.49Q13.54-17.75 13.62-17.93Q13.71-18.11 13.89-18.46Q14.06-18.81 14.15-18.98Q14.24-19.16 14.59-19.60Q14.94-20.04 15.12-20.48Q15.29-20.92 15.29-21.09Q15.29-21.27 15.29-21.62Q15.29-21.97 14.77-22.41Q14.24-22.85 13.71-22.85Q13.18-22.85 12.83-22.85Q12.48-22.85 12.13-23.03Q11.78-23.20 11.78-23.38Q11.78-23.55 11.78-23.73Q11.78-23.91 12.66-24.87Q13.54-25.84 13.80-25.84Q14.06-25.84 14.24-25.93Q14.41-26.02 14.59-26.02Q14.77-26.02 14.85-26.02Q14.94-26.02 15.21-26.10Q15.47-26.19 16.08-26.72Q16.70-27.25 16.70-27.42Q16.70-27.60 16.70-27.86Q16.70-28.13 16.17-29.18Q15.64-30.23 15.47-30.50Q15.29-30.76 14.94-31.11Q14.59-31.46 13.97-31.82Q13.36-32.17 13.10-32.17Q12.83-32.17 12.66-32.17Q12.48-32.17 12.22-32.17Q11.95-32.17 11.78-32.17Q11.60-32.17 11.16-32.17Q10.72-32.17 10.63-32.08Q10.55-31.99 10.20-31.64Q9.84-31.29 8.96-30.50Q8.09-29.71 7.56-29.62Q7.03-29.53 6.24-29.97Q5.45-30.41 4.92-30.59Q4.39-30.76 4.39-30.76Q4.39-30.76 4.22-30.67Q4.04-30.59 3.96-30.41Q3.87-30.23 3.87-30.23Q3.87-30.23 4.13-29.79Q4.39-29.36 4.83-28.74Q5.27-28.13 5.63-27.77Q5.98-27.42 6.59-26.98Q7.21-26.54 8.00-26.10Q8.79-25.66 8.96-25.40Q9.14-25.14 9.05-24.79Q8.96-24.43 8.79-23.82Q8.61-23.20 8.26-22.50Q7.91-21.80 7.73-21.53Q7.56-21.27 7.38-20.92Q7.21-20.57 7.21-20.57Q7.21-20.57 7.29-20.21Q7.38-19.86 7.56-19.60Q7.73-19.34 7.73-19.25Q7.73-19.16 7.47-18.90Q7.21-18.63 6.86-18.11Q6.50-17.58 5.98-17.05Q5.45-16.52 5.10-16.35Q4.75-16.17 4.48-16.08Q4.22-16.00 4.13-16.00Q4.04-16.00 3.78-16.17Q3.52-16.35 3.16-16.44Q2.81-16.52 2.64-16.52Q2.46-16.52 2.46-16.17Q2.46-15.82 2.46-15.21Q2.46-14.59 4.75-13.27Q7.03-11.95 7.73-12.13Q8.44-12.30 8.53-12.39Q8.61-12.48 8.79-12.39Q8.96-12.30 9.05-12.22Q9.14-12.13 9.32-11.95Q9.49-11.78 9.49-11.69Q9.49-11.60 9.49-10.37Q9.49-9.14 9.40-8.00Q9.32-6.86 9.32-6.68Q9.32-6.50 9.49-6.15Q9.67-5.80 9.84-5.36Q10.02-4.92 10.99-3.96Q11.95-2.99 12.30-2.81Q12.66-2.64 12.92-2.55Q13.18-2.46 13.18-2.46Q13.18-2.46 13.45-2.64Q13.71-2.81 13.80-2.90Q13.89-2.99 13.97-3.16Q14.06-3.34 14.06-3.52Q14.06-3.69 14.06-4.04Q14.06-4.39 14.24-5.10Q14.41-5.80 14.68-6.33Q14.94-6.86 14.94-7.03Q14.94-7.21 15.03-7.38Q15.12-7.56 15.12-7.73Q15.12-7.91 15.12-8.17Q15.12-8.44 15.56-8.79Q16.00-9.14 16.44-9.32Q16.88-9.49 17.31-9.67Q17.75-9.84 17.93-9.76Q18.11-9.67 18.11-9.32Q18.11-8.96 18.11-8.53Q18.11-8.09 18.37-7.03Q18.63-5.98 18.72-5.98Q18.81-5.98 19.16-5.80Q19.51-5.63 19.86-6.33Q20.21-7.03 20.65-8.44Q21.09-9.84 21.53-11.07Q21.97-12.30 22.06-12.39Q22.15-12.48 23.55-13.18Q24.96-13.89 26.10-14.50Q27.25-15.12 27.16-15.21Q27.07-15.29 27.16-12.57Q27.25-9.84 27.25-8.53Q27.25-7.21 27.33-6.15Q27.42-5.10 27.42-5.01Q27.42-4.92 27.51-4.83Q27.60-4.75 27.60-4.22Q27.60-3.69 27.69-2.99Q27.77-2.29 27.77-1.32Q27.77-0.35 27.77 0Q27.77 0.35 27.60 0.70Q27.42 1.05 27.33 1.58Q27.25 2.11 27.25 2.11Q27.25 2.11 27.42 2.46Q27.60 2.81 27.69 3.25Q27.77 3.69 27.95 3.78Q28.13 3.87 28.48 3.78Q28.83 3.69 29.18 3.69Q29.53 3.69 30.06 3.08Q30.59 2.46 30.67 2.11Q30.76 1.76 30.85 1.49Q30.94 1.23 30.85 0.18Q30.76-0.88 30.41-5.01Q30.06-9.14 29.71-12.04Q29.36-14.94 29.36-15.03Q29.36-15.12 29.62-15.29Q29.88-15.47 30.06-15.64Q30.23-15.82 30.41-15.91Q30.59-16.00 31.11-16.00Q31.64-16.00 31.99-16.08Q32.34-16.17 32.96-16.26Q33.57-16.35 34.01-16.35Q34.45-16.35 35.86-16.61Q37.27-16.88 37.97-16.88Q38.67-16.88 39.81-16.70Q40.96-16.52 41.92-16.44Q42.89-16.35 42.89-16.35Q42.89-16.35 43.07-16.52Q43.24-16.70 43.33-16.88Q43.42-17.05 43.42-17.40Q43.42-17.75 43.15-18.19Q42.89-18.63 42.80-18.81Q42.71-18.98 42.54-19.16Q42.36-19.34 42.01-19.51Q41.66-19.69 41.22-19.95Q40.78-20.21 40.61-20.21Q40.43-20.21 39.73-20.21Q39.02-20.21 38.32-20.21Q37.62-20.21 36.74-20.13Q35.86-20.04 35.07-19.78Q34.28-19.51 34.10-19.51Q33.93-19.51 33.40-19.42Q32.87-19.34 32.61-19.25Q32.34-19.16 31.99-19.07Q31.64-18.98 31.20-18.90Q30.76-18.81 30.59-18.81Q30.41-18.81 30.23-18.72Q30.06-18.63 29.97-18.72Q29.88-18.81 29.71-18.90Q29.53-18.98 29.36-19.07Q29.18-19.16 29.18-19.25Q29.18-19.34 29.18-19.86Q29.18-20.39 29.18-21.01Q29.18-21.62 29.18-21.71Q29.18-21.80 29.44-22.06Q29.71-22.32 29.79-22.50Q29.88-22.68 30.23-22.85Q30.59-23.03 30.85-23.20Q31.11-23.38 31.82-23.73Q32.52-24.08 32.96-24.52Q33.40-24.96 33.49-25.49Q33.57-26.02 33.66-26.28Q33.75-26.54 33.84-26.81Q33.93-27.07 33.93-27.07Q33.93-27.07 33.93-27.33Q33.93-27.60 33.40-28.30Q32.87-29.00 32.61-29.09Q32.34-29.18 31.82-29.44Q31.29-29.71 31.20-29.88Q31.11-30.06 31.11-30.59Q31.11-31.11 31.11-31.55Q31.11-31.99 30.94-32.43Q30.76-32.87 30.59-33.05Q30.41-33.22 30.32-33.31Q30.23-33.40 29.88-33.75Q29.53-34.10 29.27-34.54Q29.00-34.98 28.74-35.42Q28.48-35.86 28.21-36.30Q27.95-36.74 27.86-36.83Q27.77-36.91 27.51-37.18Q27.25-37.44 26.81-37.44Q26.37-37.44 26.10-37.09Q25.84-36.74 25.84-36.74ZM26.89-19.51L26.89-19.51Q27.42-19.16 27.33-18.72Q27.25-18.28 27.07-18.02Q26.89-17.75 26.72-17.58Q26.54-17.40 25.22-16.88Q23.91-16.35 23.64-16.35Q23.38-16.35 23.12-16.35Q22.85-16.35 23.03-16.70Q23.20-17.05 23.73-17.49Q24.26-17.93 24.61-18.28Q24.96-18.63 25.66-19.16Q26.37-19.69 26.54-19.78Q26.72-19.86 26.72-19.86Q26.72-19.86 26.81-19.78Q26.89-19.69 26.89-19.60Q26.89-19.51 26.89-19.51ZM12.83-9.32L12.83-9.32Q12.83-8.96 12.74-8.96Q12.66-8.96 12.57-8.96Q12.48-8.96 12.22-9.05Q11.95-9.14 11.87-9.40Q11.78-9.67 11.95-9.76Q12.13-9.84 12.30-9.93Q12.48-10.02 12.66-9.84Q12.83-9.67 12.83-9.49Q12.83-9.32 12.83-9.32Z" transform="translate(-2.4609375, 38.7890625)"></path></g></g><g transform="translate(124.8779296875, 0)" mask="url(#47b1a24ed116fd7bf40742acd0fa6c94)"><rect stroke="#05004e" stroke-width="2" fill-opacity="0" stroke-linejoin="round" x="0" y="0" width="43.8369140625" height="48.6123046875"></rect> <g fill="#05004e" transform="translate(2.997814178466797,3)"><path d="M16.17-38.14L16.17-38.14Q15.64-38.14 15.38-37.88Q15.12-37.62 15.12-37.44Q15.12-37.27 15.12-37.27Q15.12-37.27 15.29-37.09Q15.47-36.91 15.64-36.83Q15.82-36.74 16.08-36.65Q16.35-36.56 16.44-36.56Q16.52-36.56 16.88-36.65Q17.23-36.74 17.75-36.91Q18.28-37.09 18.54-37.00Q18.81-36.91 19.25-36.56Q19.69-36.21 20.04-35.86Q20.39-35.51 20.57-35.07Q20.74-34.63 20.74-34.01Q20.74-33.40 20.74-32.96Q20.74-32.52 20.57-32.17Q20.39-31.82 20.04-31.82Q19.69-31.82 19.60-31.73Q19.51-31.64 19.25-31.55Q18.98-31.46 18.81-31.29Q18.63-31.11 18.19-30.85Q17.75-30.59 17.49-30.59Q17.23-30.59 16.70-31.11Q16.17-31.64 15.64-32.08Q15.12-32.52 14.85-32.70Q14.59-32.87 14.33-32.87Q14.06-32.87 13.80-32.87Q13.54-32.87 12.92-32.26Q12.30-31.64 12.04-31.03Q11.78-30.41 11.43-29.88Q11.07-29.36 11.07-29.27Q11.07-29.18 11.87-28.39Q12.66-27.60 13.27-26.89Q13.89-26.19 14.50-25.84Q15.12-25.49 15.29-25.66Q15.47-25.84 15.56-25.93Q15.64-26.02 15.73-26.10Q15.82-26.19 15.82-26.28Q15.82-26.37 15.82-26.63Q15.82-26.89 16.26-27.33Q16.70-27.77 16.88-27.77Q17.05-27.77 17.31-27.69Q17.58-27.60 17.75-27.25Q17.93-26.89 18.11-26.46Q18.28-26.02 18.37-25.75Q18.46-25.49 18.54-25.40Q18.63-25.31 18.81-25.22Q18.98-25.14 19.25-25.05Q19.51-24.96 20.13-24.43Q20.74-23.91 20.74-23.73Q20.74-23.55 20.83-23.38Q20.92-23.20 20.74-22.94Q20.57-22.68 19.95-22.41Q19.34-22.15 19.07-21.97Q18.81-21.80 18.46-21.53Q18.11-21.27 17.93-21.18Q17.75-21.09 17.58-20.92Q17.40-20.74 17.05-20.48Q16.70-20.21 16.52-20.04Q16.35-19.86 16.17-19.78Q16.00-19.69 15.64-19.51Q15.29-19.34 15.21-19.25Q15.12-19.16 15.03-19.07Q14.94-18.98 14.59-18.72Q14.24-18.46 14.06-18.28Q13.89-18.11 13.01-17.40Q12.13-16.70 10.55-15.56Q8.96-14.41 8.88-14.41Q8.79-14.41 8.70-14.41Q8.61-14.41 8.35-14.77Q8.09-15.12 8.09-15.38Q8.09-15.64 8.09-15.73Q8.09-15.82 8.00-16.26Q7.91-16.70 7.73-17.05Q7.56-17.40 7.38-17.93Q7.21-18.46 7.21-18.72Q7.21-18.98 7.21-19.69Q7.21-20.39 7.21-21.97L7.21-21.97L6.68-21.97Q5.80-21.97 5.27-21.36Q4.75-20.74 4.57-20.13Q4.39-19.51 4.22-18.90Q4.04-18.28 4.04-17.05Q4.04-15.82 4.22-15.38Q4.39-14.94 4.39-14.68Q4.39-14.41 4.57-14.06Q4.75-13.71 4.83-13.45Q4.92-13.18 5.01-12.57Q5.10-11.95 5.45-11.60Q5.80-11.25 6.33-11.07Q6.86-10.90 7.03-10.81Q7.21-10.72 7.65-10.46Q8.09-10.20 8.26-10.02Q8.44-9.84 9.49-9.14Q10.55-8.44 11.51-8.17Q12.48-7.91 12.74-8.26Q13.01-8.61 13.27-8.88Q13.54-9.14 13.45-9.32Q13.36-9.49 13.01-9.93Q12.66-10.37 12.13-10.90Q11.60-11.43 11.60-11.69Q11.60-11.95 12.13-12.83Q12.66-13.71 13.10-14.41Q13.54-15.12 14.85-16.44Q16.17-17.75 16.44-17.75Q16.70-17.75 16.88-17.75Q17.05-17.75 17.14-17.67Q17.23-17.58 17.23-17.14Q17.23-16.70 17.31-16.52Q17.40-16.35 17.58-16.00Q17.75-15.64 17.93-15.38Q18.11-15.12 18.37-14.68Q18.63-14.24 18.72-14.06Q18.81-13.89 18.81-13.45Q18.81-13.01 18.90-12.74Q18.98-12.48 19.07-12.13Q19.16-11.78 19.25-11.60Q19.34-11.43 19.42-11.07Q19.51-10.72 19.51-10.72Q19.51-10.72 19.42-10.46Q19.34-10.20 19.25-10.11Q19.16-10.02 18.98-9.93Q18.81-9.84 18.72-9.84Q18.63-9.84 18.46-9.84Q18.28-9.84 17.93-9.67Q17.58-9.49 17.14-9.23Q16.70-8.96 15.21-8.09Q13.71-7.21 13.62-7.21Q13.54-7.21 13.89-6.68Q14.24-6.15 14.33-5.89Q14.41-5.63 14.59-5.54Q14.77-5.45 15.29-5.19Q15.82-4.92 16.61-4.48Q17.40-4.04 17.49-3.87Q17.58-3.69 17.05-3.25Q16.52-2.81 16.26-2.55Q16.00-2.29 15.91-2.11Q15.82-1.93 16.08-1.85Q16.35-1.76 16.70-1.67Q17.05-1.58 16.88-1.32Q16.70-1.05 16.35-0.97Q16.00-0.88 14.59-0.53Q13.18-0.18 12.22 0Q11.25 0.18 10.81 0.26Q10.37 0.35 9.32 0.44Q8.26 0.53 8.44 0.97Q8.61 1.41 9.84 2.02Q11.07 2.64 11.69 2.90Q12.30 3.16 12.57 3.25Q12.83 3.34 13.18 3.34Q13.54 3.34 13.97 3.34Q14.41 3.34 14.59 3.25Q14.77 3.16 15.29 2.72Q15.82 2.29 16.44 1.76Q17.05 1.23 19.07 0.53Q21.09-0.18 21.36 0.09Q21.62 0.35 21.88 0.53Q22.15 0.70 22.94 0.88Q23.73 1.05 23.91 1.05Q24.08 1.05 24.17 0.97Q24.26 0.88 24.35 0.79Q24.43 0.70 24.43 0.53Q24.43 0.35 24.52 0.09Q24.61-0.18 24.96-0.26Q25.31-0.35 26.37-0.44Q27.42-0.53 28.39-0.53Q29.36-0.53 29.53-0.53Q29.71-0.53 30.94-0.26Q32.17 0 32.78 0.18Q33.40 0.35 34.01 0.62Q34.63 0.88 34.80 1.05Q34.98 1.23 34.98 1.32Q34.98 1.41 35.07 1.58Q35.16 1.76 35.07 1.93Q34.98 2.11 34.98 2.55Q34.98 2.99 35.16 3.25Q35.33 3.52 35.86 3.34Q36.39 3.16 36.91 3.08Q37.44 2.99 37.79 2.99Q38.14 2.99 38.76 3.16Q39.38 3.34 40.08 3.60Q40.78 3.87 41.13 3.78Q41.48 3.69 41.57 3.34Q41.66 2.99 41.84 2.46Q42.01 1.93 41.48 1.41Q40.96 0.88 39.64 0.26Q38.32-0.35 37.62-0.70Q36.91-1.05 35.60-1.49Q34.28-1.93 33.84-1.93Q33.40-1.93 33.31-1.93Q33.22-1.93 32.96-2.02Q32.70-2.11 32.61-2.11Q32.52-2.11 32.17-2.29Q31.82-2.46 30.85-2.55Q29.88-2.64 28.48-2.55Q27.07-2.46 26.02-2.46Q24.96-2.46 24.79-2.55Q24.61-2.64 24.61-3.08Q24.61-3.52 24.61-3.87Q24.61-4.22 24.70-4.31Q24.79-4.39 25.40-4.75Q26.02-5.10 27.25-5.80Q28.48-6.50 29.09-7.73Q29.71-8.96 29.18-9.40Q28.65-9.84 28.48-9.93Q28.30-10.02 27.95-10.11Q27.60-10.20 27.33-10.28Q27.07-10.37 26.19-10.63Q25.31-10.90 25.05-11.07Q24.79-11.25 24.70-11.60Q24.61-11.95 24.61-12.13Q24.61-12.30 24.70-12.48Q24.79-12.66 24.87-12.83Q24.96-13.01 25.31-13.45Q25.66-13.89 25.66-14.15Q25.66-14.41 25.40-14.50Q25.14-14.59 24.87-14.68Q24.61-14.77 24.61-14.94Q24.61-15.12 24.96-15.29Q25.31-15.47 25.58-15.64Q25.84-15.82 26.02-15.82Q26.19-15.82 26.46-15.82Q26.72-15.82 27.25-15.73Q27.77-15.64 28.56-15.91Q29.36-16.17 30.15-16.70Q30.94-17.23 31.29-17.49Q31.64-17.75 32.26-18.19Q32.87-18.63 33.31-18.90Q33.75-19.16 34.72-19.86Q35.68-20.57 37.09-21.88Q38.50-23.20 38.67-23.73Q38.85-24.26 39.11-24.79Q39.38-25.31 39.38-26.19Q39.38-27.07 39.02-27.60Q38.67-28.13 38.41-28.56Q38.14-29.00 37.79-29.18Q37.44-29.36 36.47-29.44Q35.51-29.53 34.80-29.62Q34.10-29.71 34.01-29.71Q33.93-29.71 33.13-29.44Q32.34-29.18 31.29-28.83Q30.23-28.48 29.88-28.39Q29.53-28.30 28.30-27.69Q27.07-27.07 26.37-26.63Q25.66-26.19 25.49-26.19Q25.31-26.19 25.22-26.28Q25.14-26.37 24.79-26.63Q24.43-26.89 24.70-27.33Q24.96-27.77 25.93-28.21Q26.89-28.65 27.16-28.74Q27.42-28.83 27.95-29.09Q28.48-29.36 28.83-29.53Q29.18-29.71 31.11-30.59Q33.05-31.46 33.13-31.55Q33.22-31.64 33.57-32.08Q33.93-32.52 34.37-33.05Q34.80-33.57 34.89-33.84Q34.98-34.10 34.72-34.45Q34.45-34.80 34.28-35.07Q34.10-35.33 33.49-35.68Q32.87-36.04 32.52-36.04Q32.17-36.04 32.08-36.04Q31.99-36.04 31.55-36.12Q31.11-36.21 30.85-36.30Q30.59-36.39 29.97-36.47Q29.36-36.56 29.36-36.56Q29.36-36.56 29.00-36.39Q28.65-36.21 28.30-36.04Q27.95-35.86 27.86-35.77Q27.77-35.68 28.04-35.51Q28.30-35.33 28.48-35.16Q28.65-34.98 28.65-34.98Q28.65-34.98 28.56-34.72Q28.48-34.45 28.30-34.19Q28.13-33.93 26.89-32.61Q25.66-31.29 25.58-31.29Q25.49-31.29 25.14-31.29Q24.79-31.29 25.05-31.90Q25.31-32.52 25.66-32.70Q26.02-32.87 26.28-33.05Q26.54-33.22 26.54-33.31Q26.54-33.40 26.46-33.84Q26.37-34.28 26.28-34.45Q26.19-34.63 26.02-34.80Q25.84-34.98 25.66-35.07Q25.49-35.16 25.40-35.24Q25.31-35.33 25.14-35.42Q24.96-35.51 24.79-35.68Q24.61-35.86 24.08-36.30Q23.55-36.74 22.94-37.09Q22.32-37.44 21.71-37.62Q21.09-37.79 20.65-37.97Q20.21-38.14 18.46-38.23Q16.70-38.32 16.44-38.23Q16.17-38.14 16.17-38.14ZM15.12-30.94L15.12-30.94Q15.82-30.06 15.73-29.97Q15.64-29.88 15.12-29.71Q14.59-29.53 14.24-29.36Q13.89-29.18 13.80-29.18Q13.71-29.18 13.62-29.27Q13.54-29.36 13.36-29.53Q13.18-29.71 13.27-30.15Q13.36-30.59 13.62-30.85Q13.89-31.11 14.15-31.46Q14.41-31.82 14.50-31.73Q14.59-31.64 14.85-31.29Q15.12-30.94 15.12-30.94ZM20.92-30.41L20.92-30.41Q20.92-29.71 20.92-29.09Q20.92-28.48 20.74-28.39Q20.57-28.30 20.48-28.13Q20.39-27.95 19.95-28.13Q19.51-28.30 19.34-28.48Q19.16-28.65 19.07-28.92Q18.98-29.18 18.98-29.18Q18.98-29.18 19.16-29.53Q19.34-29.88 19.69-30.59Q20.04-31.29 20.30-31.46Q20.57-31.64 20.74-31.03Q20.92-30.41 20.92-30.41ZM31.64-26.54L31.64-26.54Q31.82-26.19 31.64-25.93Q31.46-25.66 30.67-24.87Q29.88-24.08 29.27-23.29Q28.65-22.50 28.39-22.32Q28.13-22.15 27.86-22.50Q27.60-22.85 27.51-22.85Q27.42-22.85 27.16-23.03Q26.89-23.20 26.72-23.38Q26.54-23.55 26.28-23.64Q26.02-23.73 25.84-23.91Q25.66-24.08 25.66-24.17Q25.66-24.26 25.66-24.43Q25.66-24.61 26.37-24.96Q27.07-25.31 28.39-25.84Q29.71-26.37 30.41-26.63Q31.11-26.89 31.29-26.98Q31.46-27.07 31.55-26.81Q31.64-26.54 31.64-26.54ZM23.38-21.45L23.38-21.45Q23.38-21.27 23.47-21.18Q23.55-21.09 23.55-21.01Q23.55-20.92 23.55-20.74Q23.55-20.57 22.68-19.25Q21.80-17.93 21.53-17.75Q21.27-17.58 21.09-17.49Q20.92-17.40 20.92-17.40Q20.92-17.40 20.74-17.58Q20.57-17.75 20.21-18.11L20.21-18.11L20.57-18.63Q20.92-18.81 21.09-19.07Q21.27-19.34 21.36-19.51Q21.45-19.69 21.71-20.13Q21.97-20.57 22.41-21.09Q22.85-21.62 22.94-21.62Q23.03-21.62 23.03-21.62Q23.03-21.62 23.12-21.53Q23.20-21.45 23.29-21.45Q23.38-21.45 23.38-21.45ZM21.27-8.96L21.27-8.96Q21.62-8.79 21.62-8.70Q21.62-8.61 21.62-8.26Q21.62-7.91 21.62-7.56Q21.62-7.21 21.62-7.21Q21.62-7.21 21.09-6.68Q20.57-6.15 20.21-5.89Q19.86-5.63 19.60-5.36Q19.34-5.10 19.25-5.01Q19.16-4.92 18.81-4.83Q18.46-4.75 17.75-5.36Q17.05-5.98 17.05-6.33Q17.05-6.68 17.14-6.86Q17.23-7.03 17.84-7.56Q18.46-8.09 19.07-8.35Q19.69-8.61 20.21-8.88Q20.74-9.14 20.74-9.14Q20.74-9.14 21.01-9.05Q21.27-8.96 21.27-8.96Z" transform="translate(-4.04296875, 38.7890625)"></path></g></g></g> <g class="tp-slogan" fill="#76b39d" transform="translate(2.1825714111328125,55.6123046875)"><!----> <!----> <!----> <g><path d="M6.42-3.89L2.20-3.89L2.20 0L1.03 0L1.03-8.58L6.98-8.58L6.98-7.59L2.20-7.59L2.20-4.92L6.42-4.92L6.42-3.89ZM12.28-3.70L9.47-3.70L9.47 0L8.30 0L8.30-8.58L12.28-8.58Q15.14-8.58 15.14-6.28L15.14-6.28Q15.14-4.88 13.92-4.22L13.92-4.22Q14.95-3.94 14.95-2.58L14.95-2.58L15.05-1.03Q15-0.38 15.47-0.19L15.47-0.19L15.47 0L14.02 0Q13.88-0.61 13.83-2.16L13.83-2.16Q13.88-3.70 12.28-3.70L12.28-3.70ZM12.38-7.64L9.47-7.64L9.47-4.69L12.19-4.69Q13.92-4.69 13.92-6.19L13.92-6.19Q13.92-7.64 12.38-7.64L12.38-7.64ZM23.58-4.27L23.58-4.27Q23.39-7.64 20.58-7.83L20.58-7.83Q17.72-7.69 17.58-4.27L17.58-4.27Q17.72-0.94 20.58-0.80L20.58-0.80Q23.39-0.98 23.58-4.27ZM24.75-4.27L24.75-4.27Q24.47 0 20.58 0.14L20.58 0.14Q16.64 0 16.36-4.27L16.36-4.27Q16.59-8.72 20.58-8.81L20.58-8.81Q24.47-8.67 24.75-4.27ZM27.52-8.58L31.83-1.64L31.83-8.58L32.95-8.58L32.95 0L31.64 0L27.28-6.94L27.23-6.94L27.23 0L26.11 0L26.11-8.58L27.52-8.58ZM36.94-7.59L34.03-7.59L34.03-8.58L40.97-8.58L40.97-7.59L38.06-7.59L38.06 0L36.94 0L36.94-7.59ZM47.63-3.47L47.63-2.58L41.58-2.58L41.58-3.47L47.63-3.47ZM50.30-1.03L55.45-1.03L55.45 0L49.13 0L49.13-8.58L55.36-8.58L55.36-7.59L50.30-7.59L50.30-4.92L54.98-4.92L54.98-3.89L50.30-3.89L50.30-1.03ZM58.36-8.58L62.67-1.64L62.67-8.58L63.80-8.58L63.80 0L62.48 0L58.13-6.94L58.08-6.94L58.08 0L56.95 0L56.95-8.58L58.36-8.58ZM69.09 0L65.63 0L65.63-8.58L69.14-8.58Q72.61-8.39 72.75-4.41L72.75-4.41Q72.56-0.09 69.09 0L69.09 0ZM68.95-7.64L66.80-7.64L66.80-0.98L69.05-0.98Q71.48-1.13 71.58-4.31L71.58-4.31Q71.53-7.55 68.95-7.64L68.95-7.64ZM77.53-8.58L78.70-8.58L78.70-1.03L83.06-1.03L83.06 0L77.53 0L77.53-8.58ZM85.50-1.03L90.66-1.03L90.66 0L84.33 0L84.33-8.58L90.56-8.58L90.56-7.59L85.50-7.59L85.50-4.92L90.19-4.92L90.19-3.89L85.50-3.89L85.50-1.03ZM99.33-6.05L99.33-6.05L98.20-6.05Q97.78-7.78 95.81-7.83L95.81-7.83Q93.09-7.69 93-4.36L93-4.36Q93-0.80 95.86-0.80L95.86-0.80Q97.83-0.84 98.30-3.19L98.30-3.19L99.42-3.19Q98.91 0.05 95.63 0.14L95.63 0.14Q91.88 0 91.78-4.31L91.78-4.31Q91.97-8.63 95.81-8.81L95.81-8.81Q98.86-8.72 99.33-6.05ZM102.98-7.59L100.08-7.59L100.08-8.58L107.02-8.58L107.02-7.59L104.11-7.59L104.11 0L102.98 0L102.98-7.59ZM113.72-3.19L113.72-8.58L114.89-8.58L114.89-3.05Q114.75 0.05 111.38 0.14L111.38 0.14Q108.23 0.05 108.09-2.86L108.09-2.86L108.09-8.58L109.27-8.58L109.27-3.19Q109.31-0.84 111.42-0.80L111.42-0.80Q113.72-0.84 113.72-3.19L113.72-3.19ZM120.80-3.70L117.98-3.70L117.98 0L116.81 0L116.81-8.58L120.80-8.58Q123.66-8.58 123.66-6.28L123.66-6.28Q123.66-4.88 122.44-4.22L122.44-4.22Q123.47-3.94 123.47-2.58L123.47-2.58L123.56-1.03Q123.52-0.38 123.98-0.19L123.98-0.19L123.98 0L122.53 0Q122.39-0.61 122.34-2.16L122.34-2.16Q122.39-3.70 120.80-3.70L120.80-3.70ZM120.89-7.64L117.98-7.64L117.98-4.69L120.70-4.69Q122.44-4.69 122.44-6.19L122.44-6.19Q122.44-7.64 120.89-7.64L120.89-7.64ZM126.61-1.03L131.77-1.03L131.77 0L125.44 0L125.44-8.58L131.67-8.58L131.67-7.59L126.61-7.59L126.61-4.92L131.30-4.92L131.30-3.89L126.61-3.89L126.61-1.03ZM137.77-5.06L142.27-5.06L142.27-8.58L143.44-8.58L143.44 0L142.27 0L142.27-3.98L137.77-3.98L137.77 0L136.59 0L136.59-8.58L137.77-8.58L137.77-5.06ZM150.89 0L150.05-2.48L146.58-2.48L145.69 0L144.52 0L147.75-8.58L149.06-8.58L152.16 0L150.89 0ZM148.31-7.31L146.95-3.52L149.63-3.52L148.36-7.31L148.31-7.31ZM153.19-8.58L154.36-8.58L154.36-1.03L158.72-1.03L158.72 0L153.19 0L153.19-8.58ZM159.84-8.58L161.02-8.58L161.02-1.03L165.38-1.03L165.38 0L159.84 0L159.84-8.58Z" transform="translate(-1.03125, 8.8125)"></path></g></g></g><mask id="47b1a24ed116fd7bf40742acd0fa6c94"><rect stroke="white" stroke-width="2" fill-opacity="0" stroke-linejoin="round" x="0" y="0" width="43.8369140625" height="48.6123046875" fill="black"></rect> <g transform="translate(2.997814178466797,3)" fill="white"><path d="M16.17-38.14L16.17-38.14Q15.64-38.14 15.38-37.88Q15.12-37.62 15.12-37.44Q15.12-37.27 15.12-37.27Q15.12-37.27 15.29-37.09Q15.47-36.91 15.64-36.83Q15.82-36.74 16.08-36.65Q16.35-36.56 16.44-36.56Q16.52-36.56 16.88-36.65Q17.23-36.74 17.75-36.91Q18.28-37.09 18.54-37.00Q18.81-36.91 19.25-36.56Q19.69-36.21 20.04-35.86Q20.39-35.51 20.57-35.07Q20.74-34.63 20.74-34.01Q20.74-33.40 20.74-32.96Q20.74-32.52 20.57-32.17Q20.39-31.82 20.04-31.82Q19.69-31.82 19.60-31.73Q19.51-31.64 19.25-31.55Q18.98-31.46 18.81-31.29Q18.63-31.11 18.19-30.85Q17.75-30.59 17.49-30.59Q17.23-30.59 16.70-31.11Q16.17-31.64 15.64-32.08Q15.12-32.52 14.85-32.70Q14.59-32.87 14.33-32.87Q14.06-32.87 13.80-32.87Q13.54-32.87 12.92-32.26Q12.30-31.64 12.04-31.03Q11.78-30.41 11.43-29.88Q11.07-29.36 11.07-29.27Q11.07-29.18 11.87-28.39Q12.66-27.60 13.27-26.89Q13.89-26.19 14.50-25.84Q15.12-25.49 15.29-25.66Q15.47-25.84 15.56-25.93Q15.64-26.02 15.73-26.10Q15.82-26.19 15.82-26.28Q15.82-26.37 15.82-26.63Q15.82-26.89 16.26-27.33Q16.70-27.77 16.88-27.77Q17.05-27.77 17.31-27.69Q17.58-27.60 17.75-27.25Q17.93-26.89 18.11-26.46Q18.28-26.02 18.37-25.75Q18.46-25.49 18.54-25.40Q18.63-25.31 18.81-25.22Q18.98-25.14 19.25-25.05Q19.51-24.96 20.13-24.43Q20.74-23.91 20.74-23.73Q20.74-23.55 20.83-23.38Q20.92-23.20 20.74-22.94Q20.57-22.68 19.95-22.41Q19.34-22.15 19.07-21.97Q18.81-21.80 18.46-21.53Q18.11-21.27 17.93-21.18Q17.75-21.09 17.58-20.92Q17.40-20.74 17.05-20.48Q16.70-20.21 16.52-20.04Q16.35-19.86 16.17-19.78Q16.00-19.69 15.64-19.51Q15.29-19.34 15.21-19.25Q15.12-19.16 15.03-19.07Q14.94-18.98 14.59-18.72Q14.24-18.46 14.06-18.28Q13.89-18.11 13.01-17.40Q12.13-16.70 10.55-15.56Q8.96-14.41 8.88-14.41Q8.79-14.41 8.70-14.41Q8.61-14.41 8.35-14.77Q8.09-15.12 8.09-15.38Q8.09-15.64 8.09-15.73Q8.09-15.82 8.00-16.26Q7.91-16.70 7.73-17.05Q7.56-17.40 7.38-17.93Q7.21-18.46 7.21-18.72Q7.21-18.98 7.21-19.69Q7.21-20.39 7.21-21.97L7.21-21.97L6.68-21.97Q5.80-21.97 5.27-21.36Q4.75-20.74 4.57-20.13Q4.39-19.51 4.22-18.90Q4.04-18.28 4.04-17.05Q4.04-15.82 4.22-15.38Q4.39-14.94 4.39-14.68Q4.39-14.41 4.57-14.06Q4.75-13.71 4.83-13.45Q4.92-13.18 5.01-12.57Q5.10-11.95 5.45-11.60Q5.80-11.25 6.33-11.07Q6.86-10.90 7.03-10.81Q7.21-10.72 7.65-10.46Q8.09-10.20 8.26-10.02Q8.44-9.84 9.49-9.14Q10.55-8.44 11.51-8.17Q12.48-7.91 12.74-8.26Q13.01-8.61 13.27-8.88Q13.54-9.14 13.45-9.32Q13.36-9.49 13.01-9.93Q12.66-10.37 12.13-10.90Q11.60-11.43 11.60-11.69Q11.60-11.95 12.13-12.83Q12.66-13.71 13.10-14.41Q13.54-15.12 14.85-16.44Q16.17-17.75 16.44-17.75Q16.70-17.75 16.88-17.75Q17.05-17.75 17.14-17.67Q17.23-17.58 17.23-17.14Q17.23-16.70 17.31-16.52Q17.40-16.35 17.58-16.00Q17.75-15.64 17.93-15.38Q18.11-15.12 18.37-14.68Q18.63-14.24 18.72-14.06Q18.81-13.89 18.81-13.45Q18.81-13.01 18.90-12.74Q18.98-12.48 19.07-12.13Q19.16-11.78 19.25-11.60Q19.34-11.43 19.42-11.07Q19.51-10.72 19.51-10.72Q19.51-10.72 19.42-10.46Q19.34-10.20 19.25-10.11Q19.16-10.02 18.98-9.93Q18.81-9.84 18.72-9.84Q18.63-9.84 18.46-9.84Q18.28-9.84 17.93-9.67Q17.58-9.49 17.14-9.23Q16.70-8.96 15.21-8.09Q13.71-7.21 13.62-7.21Q13.54-7.21 13.89-6.68Q14.24-6.15 14.33-5.89Q14.41-5.63 14.59-5.54Q14.77-5.45 15.29-5.19Q15.82-4.92 16.61-4.48Q17.40-4.04 17.49-3.87Q17.58-3.69 17.05-3.25Q16.52-2.81 16.26-2.55Q16.00-2.29 15.91-2.11Q15.82-1.93 16.08-1.85Q16.35-1.76 16.70-1.67Q17.05-1.58 16.88-1.32Q16.70-1.05 16.35-0.97Q16.00-0.88 14.59-0.53Q13.18-0.18 12.22 0Q11.25 0.18 10.81 0.26Q10.37 0.35 9.32 0.44Q8.26 0.53 8.44 0.97Q8.61 1.41 9.84 2.02Q11.07 2.64 11.69 2.90Q12.30 3.16 12.57 3.25Q12.83 3.34 13.18 3.34Q13.54 3.34 13.97 3.34Q14.41 3.34 14.59 3.25Q14.77 3.16 15.29 2.72Q15.82 2.29 16.44 1.76Q17.05 1.23 19.07 0.53Q21.09-0.18 21.36 0.09Q21.62 0.35 21.88 0.53Q22.15 0.70 22.94 0.88Q23.73 1.05 23.91 1.05Q24.08 1.05 24.17 0.97Q24.26 0.88 24.35 0.79Q24.43 0.70 24.43 0.53Q24.43 0.35 24.52 0.09Q24.61-0.18 24.96-0.26Q25.31-0.35 26.37-0.44Q27.42-0.53 28.39-0.53Q29.36-0.53 29.53-0.53Q29.71-0.53 30.94-0.26Q32.17 0 32.78 0.18Q33.40 0.35 34.01 0.62Q34.63 0.88 34.80 1.05Q34.98 1.23 34.98 1.32Q34.98 1.41 35.07 1.58Q35.16 1.76 35.07 1.93Q34.98 2.11 34.98 2.55Q34.98 2.99 35.16 3.25Q35.33 3.52 35.86 3.34Q36.39 3.16 36.91 3.08Q37.44 2.99 37.79 2.99Q38.14 2.99 38.76 3.16Q39.38 3.34 40.08 3.60Q40.78 3.87 41.13 3.78Q41.48 3.69 41.57 3.34Q41.66 2.99 41.84 2.46Q42.01 1.93 41.48 1.41Q40.96 0.88 39.64 0.26Q38.32-0.35 37.62-0.70Q36.91-1.05 35.60-1.49Q34.28-1.93 33.84-1.93Q33.40-1.93 33.31-1.93Q33.22-1.93 32.96-2.02Q32.70-2.11 32.61-2.11Q32.52-2.11 32.17-2.29Q31.82-2.46 30.85-2.55Q29.88-2.64 28.48-2.55Q27.07-2.46 26.02-2.46Q24.96-2.46 24.79-2.55Q24.61-2.64 24.61-3.08Q24.61-3.52 24.61-3.87Q24.61-4.22 24.70-4.31Q24.79-4.39 25.40-4.75Q26.02-5.10 27.25-5.80Q28.48-6.50 29.09-7.73Q29.71-8.96 29.18-9.40Q28.65-9.84 28.48-9.93Q28.30-10.02 27.95-10.11Q27.60-10.20 27.33-10.28Q27.07-10.37 26.19-10.63Q25.31-10.90 25.05-11.07Q24.79-11.25 24.70-11.60Q24.61-11.95 24.61-12.13Q24.61-12.30 24.70-12.48Q24.79-12.66 24.87-12.83Q24.96-13.01 25.31-13.45Q25.66-13.89 25.66-14.15Q25.66-14.41 25.40-14.50Q25.14-14.59 24.87-14.68Q24.61-14.77 24.61-14.94Q24.61-15.12 24.96-15.29Q25.31-15.47 25.58-15.64Q25.84-15.82 26.02-15.82Q26.19-15.82 26.46-15.82Q26.72-15.82 27.25-15.73Q27.77-15.64 28.56-15.91Q29.36-16.17 30.15-16.70Q30.94-17.23 31.29-17.49Q31.64-17.75 32.26-18.19Q32.87-18.63 33.31-18.90Q33.75-19.16 34.72-19.86Q35.68-20.57 37.09-21.88Q38.50-23.20 38.67-23.73Q38.85-24.26 39.11-24.79Q39.38-25.31 39.38-26.19Q39.38-27.07 39.02-27.60Q38.67-28.13 38.41-28.56Q38.14-29.00 37.79-29.18Q37.44-29.36 36.47-29.44Q35.51-29.53 34.80-29.62Q34.10-29.71 34.01-29.71Q33.93-29.71 33.13-29.44Q32.34-29.18 31.29-28.83Q30.23-28.48 29.88-28.39Q29.53-28.30 28.30-27.69Q27.07-27.07 26.37-26.63Q25.66-26.19 25.49-26.19Q25.31-26.19 25.22-26.28Q25.14-26.37 24.79-26.63Q24.43-26.89 24.70-27.33Q24.96-27.77 25.93-28.21Q26.89-28.65 27.16-28.74Q27.42-28.83 27.95-29.09Q28.48-29.36 28.83-29.53Q29.18-29.71 31.11-30.59Q33.05-31.46 33.13-31.55Q33.22-31.64 33.57-32.08Q33.93-32.52 34.37-33.05Q34.80-33.57 34.89-33.84Q34.98-34.10 34.72-34.45Q34.45-34.80 34.28-35.07Q34.10-35.33 33.49-35.68Q32.87-36.04 32.52-36.04Q32.17-36.04 32.08-36.04Q31.99-36.04 31.55-36.12Q31.11-36.21 30.85-36.30Q30.59-36.39 29.97-36.47Q29.36-36.56 29.36-36.56Q29.36-36.56 29.00-36.39Q28.65-36.21 28.30-36.04Q27.95-35.86 27.86-35.77Q27.77-35.68 28.04-35.51Q28.30-35.33 28.48-35.16Q28.65-34.98 28.65-34.98Q28.65-34.98 28.56-34.72Q28.48-34.45 28.30-34.19Q28.13-33.93 26.89-32.61Q25.66-31.29 25.58-31.29Q25.49-31.29 25.14-31.29Q24.79-31.29 25.05-31.90Q25.31-32.52 25.66-32.70Q26.02-32.87 26.28-33.05Q26.54-33.22 26.54-33.31Q26.54-33.40 26.46-33.84Q26.37-34.28 26.28-34.45Q26.19-34.63 26.02-34.80Q25.84-34.98 25.66-35.07Q25.49-35.16 25.40-35.24Q25.31-35.33 25.14-35.42Q24.96-35.51 24.79-35.68Q24.61-35.86 24.08-36.30Q23.55-36.74 22.94-37.09Q22.32-37.44 21.71-37.62Q21.09-37.79 20.65-37.97Q20.21-38.14 18.46-38.23Q16.70-38.32 16.44-38.23Q16.17-38.14 16.17-38.14ZM15.12-30.94L15.12-30.94Q15.82-30.06 15.73-29.97Q15.64-29.88 15.12-29.71Q14.59-29.53 14.24-29.36Q13.89-29.18 13.80-29.18Q13.71-29.18 13.62-29.27Q13.54-29.36 13.36-29.53Q13.18-29.71 13.27-30.15Q13.36-30.59 13.62-30.85Q13.89-31.11 14.15-31.46Q14.41-31.82 14.50-31.73Q14.59-31.64 14.85-31.29Q15.12-30.94 15.12-30.94ZM20.92-30.41L20.92-30.41Q20.92-29.71 20.92-29.09Q20.92-28.48 20.74-28.39Q20.57-28.30 20.48-28.13Q20.39-27.95 19.95-28.13Q19.51-28.30 19.34-28.48Q19.16-28.65 19.07-28.92Q18.98-29.18 18.98-29.18Q18.98-29.18 19.16-29.53Q19.34-29.88 19.69-30.59Q20.04-31.29 20.30-31.46Q20.57-31.64 20.74-31.03Q20.92-30.41 20.92-30.41ZM31.64-26.54L31.64-26.54Q31.82-26.19 31.64-25.93Q31.46-25.66 30.67-24.87Q29.88-24.08 29.27-23.29Q28.65-22.50 28.39-22.32Q28.13-22.15 27.86-22.50Q27.60-22.85 27.51-22.85Q27.42-22.85 27.16-23.03Q26.89-23.20 26.72-23.38Q26.54-23.55 26.28-23.64Q26.02-23.73 25.84-23.91Q25.66-24.08 25.66-24.17Q25.66-24.26 25.66-24.43Q25.66-24.61 26.37-24.96Q27.07-25.31 28.39-25.84Q29.71-26.37 30.41-26.63Q31.11-26.89 31.29-26.98Q31.46-27.07 31.55-26.81Q31.64-26.54 31.64-26.54ZM23.38-21.45L23.38-21.45Q23.38-21.27 23.47-21.18Q23.55-21.09 23.55-21.01Q23.55-20.92 23.55-20.74Q23.55-20.57 22.68-19.25Q21.80-17.93 21.53-17.75Q21.27-17.58 21.09-17.49Q20.92-17.40 20.92-17.40Q20.92-17.40 20.74-17.58Q20.57-17.75 20.21-18.11L20.21-18.11L20.57-18.63Q20.92-18.81 21.09-19.07Q21.27-19.34 21.36-19.51Q21.45-19.69 21.71-20.13Q21.97-20.57 22.41-21.09Q22.85-21.62 22.94-21.62Q23.03-21.62 23.03-21.62Q23.03-21.62 23.12-21.53Q23.20-21.45 23.29-21.45Q23.38-21.45 23.38-21.45ZM21.27-8.96L21.27-8.96Q21.62-8.79 21.62-8.70Q21.62-8.61 21.62-8.26Q21.62-7.91 21.62-7.56Q21.62-7.21 21.62-7.21Q21.62-7.21 21.09-6.68Q20.57-6.15 20.21-5.89Q19.86-5.63 19.60-5.36Q19.34-5.10 19.25-5.01Q19.16-4.92 18.81-4.83Q18.46-4.75 17.75-5.36Q17.05-5.98 17.05-6.33Q17.05-6.68 17.14-6.86Q17.23-7.03 17.84-7.56Q18.46-8.09 19.07-8.35Q19.69-8.61 20.21-8.88Q20.74-9.14 20.74-9.14Q20.74-9.14 21.01-9.05Q21.27-8.96 21.27-8.96Z" transform="translate(-4.04296875, 38.7890625)"></path></g></mask></svg>