<svg data-v-06c5d478="" version="1.0" xmlns="http://www.w3.org/2000/svg" xmlns:xlink="http://www.w3.org/1999/xlink" width="100%" height="100%" viewBox="0 0 340.000000 250.000000" preserveAspectRatio="xMidYMid meet" color-interpolation-filters="sRGB" class="el-tooltip" style="margin: auto;"><rect data-v-06c5d478="" x="0" y="0" width="100%" height="100%" fill="#5b6236" fill-opacity="1"></rect>  <g data-v-06c5d478="" fill="#fff" class="bordersvg b-d1" transform="translate(77.87892150878906,45.61499786376953)"><path fill-opacity="0" stroke="#fff" stroke-width="4" d="M 158.77000427246094 52.957998275756836 A 79.38500213623047 79.38500213623047 0 1 0 158.77000427246094 105.8120059967041"></path> <g transform="translate(10,52.957998275756836)"><g><rect stroke-width="2" class="i-icon-bg" x="0" y="0" width="178.77000427246094" height="52.854007720947266" fill-opacity="0"></rect> <!----> <!----> </g> <g transform="translate(10,3)"><g class="tp-name" transform="translate(4.825004577636719,0)"><g><path d="M34.08-0.32Q34.08 1.80 32.54 2.86Q31 3.92 29.40 4.20Q27.80 4.48 26.92 4.48L26.92 4.48L26.92 2.76Q28.28 2.76 30.34 2.18Q32.40 1.60 32.40-0.32L32.40-0.32L32.40-17.44L34.08-17.44L34.08-0.32ZM20.24-16.48Q20.60-16.48 20.86-16.22Q21.12-15.96 21.12-15.64L21.12-15.64L21.12 0.48Q21.12 1.84 20.32 2.78Q19.52 3.72 18.66 4.14Q17.80 4.56 17.40 4.68L17.40 4.68L16.92 3.08Q17.04 3.08 17.68 2.76Q18.32 2.44 18.86 1.86Q19.40 1.28 19.40 0.48L19.40 0.48L19.40-1.80L9.96-1.80L9.96 4.88L8.28 4.88L8.28-15.64Q8.28-15.96 8.52-16.22Q8.76-16.48 9.12-16.48L9.12-16.48L20.24-16.48ZM5.60-19.72L5.60-21.44L14.20-21.44L12.60-25L14.16-25.72L16.08-21.44L26.32-21.44L28.24-25.72L29.80-25L28.20-21.44L37.04-21.44L37.04-19.72L5.60-19.72ZM26.08-15.60L27.76-15.60L27.76-0.44L26.08-0.44L26.08-15.60ZM19.40-10.04L19.40-14.80L9.96-14.80L9.96-10.04L19.40-10.04ZM9.96-8.36L9.96-3.52L19.40-3.52L19.40-8.36L9.96-8.36ZM57.76-17.52Q57.52-17.76 57.52-18.12L57.52-18.12L57.52-24.48L59.20-24.48L59.20-18.96L64.60-18.96L64.60-25.60L66.28-25.60L66.28-18.96L71.68-18.96L71.68-24.48L73.40-24.48L73.40-18.12Q73.40-17.76 73.14-17.52Q72.88-17.28 72.56-17.28L72.56-17.28L58.36-17.28Q58-17.28 57.76-17.52L57.76-17.52ZM54.84-1.20Q55.64-1.64 55.68-1.64L55.68-1.64L56.60-0.24Q52.92 1.60 53.44 1.34Q53.96 1.08 52.02 1.60Q50.08 2.12 47.76 2.12L47.76 2.12L44.60 2.12L44.60 0.44L47.76 0.44Q49.04 0.44 50.36 0.24L50.36 0.24Q51.72-3.72 52.18-9.16Q52.64-14.60 52.64-17L52.64-17L54.32-17Q54.32-14.60 53.90-9.48Q53.48-4.36 52.24-0.20L52.24-0.20Q54-0.72 54.84-1.20L54.84-1.20ZM65.88-13.16L64.60-9.64L73.56-9.64Q73.92-9.64 74.16-9.40Q74.40-9.16 74.40-8.80L74.40-8.80L74.40 1.28Q74.40 3.12 72.90 4.10Q71.40 5.08 70.40 5.32L70.40 5.32L69.96 3.68Q70.08 3.68 70.80 3.38Q71.52 3.08 72.12 2.54Q72.72 2 72.72 1.28L72.72 1.28L72.72-7.96L68.72-7.96L68.72 4.12L67.04 4.12L67.04-7.96L63.76-7.96L63.76 4.12L62.04 4.12L62.04-7.96L58.64-7.96L58.64 5.28L56.96 5.28L56.96-8.80Q56.96-9.16 57.22-9.40Q57.48-9.64 57.80-9.64L57.80-9.64L62.84-9.64L64.08-13.16L56.12-13.16L56.12-14.84L75.64-14.84L75.64-13.16L65.88-13.16ZM49.32-21L48.52-24.28L50.16-24.68L51.04-21L55.56-21L55.56-19.32L44.60-19.32L44.60-21L49.32-21ZM47.28-1.32L45.68-16.92L47.36-17.08L48.96-1.52L47.28-1.32ZM109.44-6.88L109.44 5.48L107.76 5.48L107.76-6.88L99.96-6.88L99.96-6.24Q99.96-3.40 98.78-0.84Q97.60 1.72 96.32 3.32Q95.04 4.92 94.48 5.36L94.48 5.36L93.32 4.12Q94.68 2.76 96.48 0.02Q98.28-2.72 98.28-6.24L98.28-6.24L98.28-6.88L92.44-6.88L92.44-8.60L98.28-8.60L98.28-17.92L93.52-17.92L93.52-19.60L98.28-19.60L98.28-24.80L99.96-24.80L99.96-19.60L107.76-19.60L107.76-24.80L109.44-24.80L109.44-19.60L114.20-19.60L114.20-17.92L109.44-17.92L109.44-8.60L115.40-8.60L115.40-6.88L109.44-6.88ZM93.44 0.24Q92.12 1.44 91.04 2.24Q89.96 3.04 89.76 3.16Q89.56 3.28 89.28 3.28Q89 3.28 88.88 3.20L88.88 3.20Q88.44 2.96 88.44 2.44L88.44 2.44L88.44-13.68L84.04-13.68L84.04-15.36L89.28-15.36Q89.64-15.36 89.88-15.12Q90.12-14.88 90.12-14.52L90.12-14.52L90.12 0.80Q92.96-1.36 94.36-3.28L94.36-3.28L95.72-2.28Q94.72-0.96 93.44 0.24L93.44 0.24ZM91.80-19.20L90.36-18.32L86.76-24.12L88.20-25L91.80-19.20ZM99.96-8.60L107.76-8.60L107.76-17.92L99.96-17.92L99.96-8.60ZM125.56-19.36Q125.56-19.72 125.80-19.96Q126.04-20.20 126.40-20.20L126.40-20.20L131.16-20.20L129.36-23.88L130.92-24.60L132.96-20.32L132.72-20.20L138.96-20.20L138.96-25.08L140.68-25.08L140.68-20.20L146.92-20.20L146.68-20.32L148.72-24.60L150.24-23.88L148.48-20.20L153.24-20.20Q153.60-20.20 153.84-19.96Q154.08-19.72 154.08-19.36L154.08-19.36L154.08-15L152.40-15L152.40-18.52L127.24-18.52L127.24-14.76L125.56-14.76L125.56-19.36ZM124.96 4.12L124.96 2.44L138.84 2.44L138.84-1.28L126.84-1.28L126.84-3L138.84-3L138.84-6.56L130.44-6.56Q130.12-6.56 129.86-6.80Q129.60-7.04 129.60-7.40L129.60-7.40L129.60-13.56Q129.60-13.92 129.86-14.18Q130.12-14.44 130.44-14.44L130.44-14.44L148.92-14.44Q149.24-14.44 149.50-14.18Q149.76-13.92 149.76-13.56L149.76-13.56L149.76-7.40Q149.76-7.04 149.50-6.80Q149.24-6.56 148.92-6.56L148.92-6.56L140.52-6.56L140.52-3L152.80-3L152.80-1.28L140.52-1.28L140.52 2.44L154.72 2.44L154.72 4.12L124.96 4.12ZM131.32-12.72L131.32-8.24L148.04-8.24L148.04-12.72L131.32-12.72Z" transform="translate(-5.6, 25.72)"></path></g> <!----> <!----> <!----> <!----> <!----> <!----> <!----></g> <g class="tp-slogan" transform="translate(0,38.19999885559082)"><!----> <!----> <!----> <g><path d="M6.20-3.76L2.13-3.76L2.13 0L1.00 0L1.00-8.29L6.75-8.29L6.75-7.34L2.13-7.34L2.13-4.76L6.20-4.76L6.20-3.76ZM11.87-3.58L9.15-3.58L9.15 0L8.02 0L8.02-8.29L11.87-8.29Q14.63-8.29 14.63-6.07L14.63-6.07Q14.63-4.71 13.45-4.08L13.45-4.08Q14.45-3.80 14.45-2.49L14.45-2.49L14.54-1.00Q14.49-0.36 14.94-0.18L14.94-0.18L14.94 0L13.54 0Q13.41-0.59 13.36-2.08L13.36-2.08Q13.41-3.58 11.87-3.58L11.87-3.58ZM11.96-7.38L9.15-7.38L9.15-4.53L11.77-4.53Q13.45-4.53 13.45-5.98L13.45-5.98Q13.45-7.38 11.96-7.38L11.96-7.38ZM22.78-4.12L22.78-4.12Q22.60-7.38 19.88-7.56L19.88-7.56Q17.12-7.43 16.98-4.12L16.98-4.12Q17.12-0.91 19.88-0.77L19.88-0.77Q22.60-0.95 22.78-4.12ZM23.91-4.12L23.91-4.12Q23.64 0 19.88 0.14L19.88 0.14Q16.08 0 15.81-4.12L15.81-4.12Q16.03-8.42 19.88-8.51L19.88-8.51Q23.64-8.38 23.91-4.12ZM26.58-8.29L30.75-1.59L30.75-8.29L31.84-8.29L31.84 0L30.57 0L26.36-6.70L26.31-6.70L26.31 0L25.23 0L25.23-8.29L26.58-8.29ZM35.69-7.34L32.88-7.34L32.88-8.29L39.58-8.29L39.58-7.34L36.77-7.34L36.77 0L35.69 0L35.69-7.34ZM46.01-3.35L46.01-2.49L40.17-2.49L40.17-3.35L46.01-3.35ZM48.59-1.00L53.57-1.00L53.57 0L47.46 0L47.46-8.29L53.48-8.29L53.48-7.34L48.59-7.34L48.59-4.76L53.12-4.76L53.12-3.76L48.59-3.76L48.59-1.00ZM56.38-8.29L60.55-1.59L60.55-8.29L61.64-8.29L61.64 0L60.37 0L56.16-6.70L56.11-6.70L56.11 0L55.02 0L55.02-8.29L56.38-8.29ZM66.75 0L63.40 0L63.40-8.29L66.80-8.29Q70.15-8.11 70.29-4.26L70.29-4.26Q70.10-0.09 66.75 0L66.75 0ZM66.62-7.38L64.53-7.38L64.53-0.95L66.71-0.95Q69.06-1.09 69.15-4.17L69.15-4.17Q69.11-7.29 66.62-7.38L66.62-7.38ZM74.91-8.29L76.04-8.29L76.04-1.00L80.25-1.00L80.25 0L74.91 0L74.91-8.29ZM82.60-1.00L87.59-1.00L87.59 0L81.47 0L81.47-8.29L87.50-8.29L87.50-7.34L82.60-7.34L82.60-4.76L87.13-4.76L87.13-3.76L82.60-3.76L82.60-1.00ZM95.96-5.84L95.96-5.84L94.88-5.84Q94.47-7.52 92.57-7.56L92.57-7.56Q89.94-7.43 89.85-4.21L89.85-4.21Q89.85-0.77 92.61-0.77L92.61-0.77Q94.51-0.82 94.97-3.08L94.97-3.08L96.05-3.08Q95.56 0.05 92.39 0.14L92.39 0.14Q88.76 0 88.67-4.17L88.67-4.17Q88.85-8.33 92.57-8.51L92.57-8.51Q95.51-8.42 95.96-5.84ZM99.50-7.34L96.69-7.34L96.69-8.29L103.39-8.29L103.39-7.34L100.58-7.34L100.58 0L99.50 0L99.50-7.34ZM109.87-3.08L109.87-8.29L111.00-8.29L111.00-2.94Q110.86 0.05 107.60 0.14L107.60 0.14Q104.57 0.05 104.43-2.76L104.43-2.76L104.43-8.29L105.56-8.29L105.56-3.08Q105.61-0.82 107.65-0.77L107.65-0.77Q109.87-0.82 109.87-3.08L109.87-3.08ZM116.71-3.58L113.99-3.58L113.99 0L112.86 0L112.86-8.29L116.71-8.29Q119.47-8.29 119.47-6.07L119.47-6.07Q119.47-4.71 118.29-4.08L118.29-4.08Q119.29-3.80 119.29-2.49L119.29-2.49L119.38-1.00Q119.33-0.36 119.78-0.18L119.78-0.18L119.78 0L118.38 0Q118.25-0.59 118.20-2.08L118.20-2.08Q118.25-3.58 116.71-3.58L116.71-3.58ZM116.80-7.38L113.99-7.38L113.99-4.53L116.61-4.53Q118.29-4.53 118.29-5.98L118.29-5.98Q118.29-7.38 116.80-7.38L116.80-7.38ZM122.32-1.00L127.30-1.00L127.30 0L121.19 0L121.19-8.29L127.21-8.29L127.21-7.34L122.32-7.34L122.32-4.76L126.85-4.76L126.85-3.76L122.32-3.76L122.32-1.00ZM133.10-4.89L137.45-4.89L137.45-8.29L138.58-8.29L138.58 0L137.45 0L137.45-3.85L133.10-3.85L133.10 0L131.97 0L131.97-8.29L133.10-8.29L133.10-4.89ZM145.78 0L144.96-2.40L141.61-2.40L140.75 0L139.62 0L142.75-8.29L144.01-8.29L147.00 0L145.78 0ZM143.29-7.06L141.98-3.40L144.56-3.40L143.33-7.06L143.29-7.06ZM148.00-8.29L149.13-8.29L149.13-1.00L153.34-1.00L153.34 0L148.00 0L148.00-8.29ZM154.43-8.29L155.56-8.29L155.56-1.00L159.77-1.00L159.77 0L154.43 0L154.43-8.29Z" transform="translate(-0.99632040758562, 8.5140107557317)"></path></g></g></g></g></g></svg>