<svg data-v-06c5d478="" version="1.0" xmlns="http://www.w3.org/2000/svg" xmlns:xlink="http://www.w3.org/1999/xlink" width="100%" height="100%" viewBox="0 0 340.000000 250.000000" preserveAspectRatio="xMidYMid meet" color-interpolation-filters="sRGB" class="el-tooltip" style="margin: auto;"><rect data-v-06c5d478="" x="0" y="0" width="100%" height="100%" fill="#FFC120" fill-opacity="1"></rect>  <g data-v-06c5d478="" fill="#fff" class="bordersvg b-d1" transform="translate(72.63124084472656,68.9124984741211)"><path fill-opacity="0" stroke="#fff" stroke-width="3" d="M 92.17500305175781 24.688753128051758 A 56.087501525878906 56.087501525878906 0 1 1 92.17500305175781 87.48624992370605"></path> <g transform="translate(0,24.688753128051758)"><g><rect stroke-width="2" class="i-icon-bg" x="0" y="0" width="184.35000610351562" height="62.7974967956543" fill-opacity="0"></rect> <!----> <!----> </g> <g transform="translate(10,3)"><g class="tp-name" transform="translate(17.55500030517578,0)"><g><path d="M16.83-23.36L5.08-23.36L5.08 2.61L8.23 2.61L8.23-5.35L13.68-5.35L13.68 2.61L16.83 2.61ZM30.91-30.51L23.63-30.51L25.43-36.85L22.41-37.71L20.38-30.51L13.63-30.51L11.34-37.75L8.32-36.81L10.30-30.51L2.79-30.51L2.79-27.36L30.91-27.36ZM28.84-24.48L25.70-24.48L25.70 2.61L28.84 2.61ZM22.68-24.48L19.53-24.48L19.53 0.72L22.68 0.72ZM8.23-12.82L13.68-12.82L13.68-8.50L8.23-8.50ZM13.68-15.97L8.23-15.97L8.23-20.20L13.68-20.20ZM56.92-13.18L57.64-13.18L57.64 1.30L60.80 1.30L60.80-13.18L62.23-13.18L62.23 2.65L65.38 2.65L65.38-16.34L58.55-16.34L59.27-19.53L66.19-19.53L66.19-22.68L48.10-22.68L48.10-19.53L56.02-19.53L55.30-16.34L49.27-16.34L49.27 2.65L52.42 2.65L52.42-13.18L53.77-13.18L53.77 1.30L56.92 1.30ZM47.97-3.73L47.74-6.84L45.86-6.71L46.53-24.57L43.38-24.70L42.70-6.48L40.59-6.34L39.73-24.75L36.59-24.61L37.44-6.12L34.24-5.89L34.47-2.79ZM64.58-35.14L61.42-35.14L61.42-28.57L58.68-28.57L58.68-37.30L55.53-37.30L55.53-28.57L52.70-28.57L52.70-35.14L49.55-35.14L49.55-25.43L64.58-25.43ZM47.88-30.87L43.29-30.87L43.29-37.30L40.14-37.30L40.14-30.87L34.97-30.87L34.97-27.72L47.88-27.72ZM85.41 3.10C86.04-0.49 86.81-6.84 87.03-10.98L92.38-10.98L92.38 2.75L95.53 2.75L95.53-10.98L100.08-10.98L100.08-14.13L95.53-14.13L95.53-25.11L99.45-25.11L99.45-28.26L95.53-28.26L95.53-37.39L92.38-37.39L92.38-28.26L87.12-28.26L87.12-37.44L83.97-37.44L83.97-28.26L79.74-28.26L79.74-25.11L83.97-25.11L83.97-14.13L79.25-14.13L79.25-10.98L83.88-10.98C83.66-6.97 82.89-0.81 82.31 2.56ZM81-4.81L79.42-7.56L76.55-5.89L76.55-23.80L68.27-23.80L68.27-20.65L73.39-20.65L73.39-4.05L69.53-1.84L71.10 0.85ZM87.12-25.11L92.38-25.11L92.38-14.13L87.12-14.13ZM75.15-34.96L72-34.96L72-28.08L75.15-28.08ZM127.17-22.27L108.58-22.27L108.58-11.79L116.33-11.79L116.33-8.23L105.53-8.23L105.53-5.08L116.33-5.08L116.33-1.44L103.81-1.44L103.81 1.71L132.03 1.71L132.03-1.44L119.47-1.44L119.47-5.08L130.32-5.08L130.32-8.23L119.47-8.23L119.47-11.79L127.17-11.79ZM131.26-29.38L127.13-29.38L128.56-35.14L125.50-35.91L123.88-29.38L119.47-29.38L119.47-37.26L116.33-37.26L116.33-29.38L112.19-29.38L110.39-35.95L107.37-35.10L108.94-29.38L104.63-29.38L104.63-20.70L107.78-20.70L107.78-26.23L128.12-26.23L128.12-20.70L131.26-20.70ZM111.73-19.13L124.02-19.13L124.02-14.94L111.73-14.94Z" transform="translate(-2.79, 37.755)"></path></g> <!----> <!----> <!----> <!----> <!----> <!----> <!----></g> <g class="tp-slogan" transform="translate(0,47.849998474121094)"><!----> <!----> <!----> <g><path d="M6.42-3.89L2.20-3.89L2.20 0L1.03 0L1.03-8.58L6.98-8.58L6.98-7.59L2.20-7.59L2.20-4.92L6.42-4.92L6.42-3.89ZM12.28-3.70L9.47-3.70L9.47 0L8.30 0L8.30-8.58L12.28-8.58Q15.14-8.58 15.14-6.28L15.14-6.28Q15.14-4.88 13.92-4.22L13.92-4.22Q14.95-3.94 14.95-2.58L14.95-2.58L15.05-1.03Q15-0.38 15.47-0.19L15.47-0.19L15.47 0L14.02 0Q13.88-0.61 13.83-2.16L13.83-2.16Q13.88-3.70 12.28-3.70L12.28-3.70ZM12.38-7.64L9.47-7.64L9.47-4.69L12.19-4.69Q13.92-4.69 13.92-6.19L13.92-6.19Q13.92-7.64 12.38-7.64L12.38-7.64ZM23.58-4.27L23.58-4.27Q23.39-7.64 20.58-7.83L20.58-7.83Q17.72-7.69 17.58-4.27L17.58-4.27Q17.72-0.94 20.58-0.80L20.58-0.80Q23.39-0.98 23.58-4.27ZM24.75-4.27L24.75-4.27Q24.47 0 20.58 0.14L20.58 0.14Q16.64 0 16.36-4.27L16.36-4.27Q16.59-8.72 20.58-8.81L20.58-8.81Q24.47-8.67 24.75-4.27ZM27.52-8.58L31.83-1.64L31.83-8.58L32.95-8.58L32.95 0L31.64 0L27.28-6.94L27.23-6.94L27.23 0L26.11 0L26.11-8.58L27.52-8.58ZM36.94-7.59L34.03-7.59L34.03-8.58L40.97-8.58L40.97-7.59L38.06-7.59L38.06 0L36.94 0L36.94-7.59ZM47.63-3.47L47.63-2.58L41.58-2.58L41.58-3.47L47.63-3.47ZM50.30-1.03L55.45-1.03L55.45 0L49.13 0L49.13-8.58L55.36-8.58L55.36-7.59L50.30-7.59L50.30-4.92L54.98-4.92L54.98-3.89L50.30-3.89L50.30-1.03ZM58.36-8.58L62.67-1.64L62.67-8.58L63.80-8.58L63.80 0L62.48 0L58.13-6.94L58.08-6.94L58.08 0L56.95 0L56.95-8.58L58.36-8.58ZM69.09 0L65.63 0L65.63-8.58L69.14-8.58Q72.61-8.39 72.75-4.41L72.75-4.41Q72.56-0.09 69.09 0L69.09 0ZM68.95-7.64L66.80-7.64L66.80-0.98L69.05-0.98Q71.48-1.13 71.58-4.31L71.58-4.31Q71.53-7.55 68.95-7.64L68.95-7.64ZM77.53-8.58L78.70-8.58L78.70-1.03L83.06-1.03L83.06 0L77.53 0L77.53-8.58ZM85.50-1.03L90.66-1.03L90.66 0L84.33 0L84.33-8.58L90.56-8.58L90.56-7.59L85.50-7.59L85.50-4.92L90.19-4.92L90.19-3.89L85.50-3.89L85.50-1.03ZM99.33-6.05L99.33-6.05L98.20-6.05Q97.78-7.78 95.81-7.83L95.81-7.83Q93.09-7.69 93-4.36L93-4.36Q93-0.80 95.86-0.80L95.86-0.80Q97.83-0.84 98.30-3.19L98.30-3.19L99.42-3.19Q98.91 0.05 95.63 0.14L95.63 0.14Q91.88 0 91.78-4.31L91.78-4.31Q91.97-8.63 95.81-8.81L95.81-8.81Q98.86-8.72 99.33-6.05ZM102.98-7.59L100.08-7.59L100.08-8.58L107.02-8.58L107.02-7.59L104.11-7.59L104.11 0L102.98 0L102.98-7.59ZM113.72-3.19L113.72-8.58L114.89-8.58L114.89-3.05Q114.75 0.05 111.38 0.14L111.38 0.14Q108.23 0.05 108.09-2.86L108.09-2.86L108.09-8.58L109.27-8.58L109.27-3.19Q109.31-0.84 111.42-0.80L111.42-0.80Q113.72-0.84 113.72-3.19L113.72-3.19ZM120.80-3.70L117.98-3.70L117.98 0L116.81 0L116.81-8.58L120.80-8.58Q123.66-8.58 123.66-6.28L123.66-6.28Q123.66-4.88 122.44-4.22L122.44-4.22Q123.47-3.94 123.47-2.58L123.47-2.58L123.56-1.03Q123.52-0.38 123.98-0.19L123.98-0.19L123.98 0L122.53 0Q122.39-0.61 122.34-2.16L122.34-2.16Q122.39-3.70 120.80-3.70L120.80-3.70ZM120.89-7.64L117.98-7.64L117.98-4.69L120.70-4.69Q122.44-4.69 122.44-6.19L122.44-6.19Q122.44-7.64 120.89-7.64L120.89-7.64ZM126.61-1.03L131.77-1.03L131.77 0L125.44 0L125.44-8.58L131.67-8.58L131.67-7.59L126.61-7.59L126.61-4.92L131.30-4.92L131.30-3.89L126.61-3.89L126.61-1.03ZM137.77-5.06L142.27-5.06L142.27-8.58L143.44-8.58L143.44 0L142.27 0L142.27-3.98L137.77-3.98L137.77 0L136.59 0L136.59-8.58L137.77-8.58L137.77-5.06ZM150.89 0L150.05-2.48L146.58-2.48L145.69 0L144.52 0L147.75-8.58L149.06-8.58L152.16 0L150.89 0ZM148.31-7.31L146.95-3.52L149.63-3.52L148.36-7.31L148.31-7.31ZM153.19-8.58L154.36-8.58L154.36-1.03L158.72-1.03L158.72 0L153.19 0L153.19-8.58ZM159.84-8.58L161.02-8.58L161.02-1.03L165.38-1.03L165.38 0L159.84 0L159.84-8.58Z" transform="translate(-1.03125, 8.8125)"></path></g></g></g></g></g></svg>