<svg data-v-06c5d478="" version="1.0" xmlns="http://www.w3.org/2000/svg" xmlns:xlink="http://www.w3.org/1999/xlink" width="100%" height="100%" viewBox="0 0 340.000000 250.000000" preserveAspectRatio="xMidYMid meet" color-interpolation-filters="sRGB" class="el-tooltip" style="margin: auto;"><rect data-v-06c5d478="" x="0" y="0" width="100%" height="100%" fill="#fde3d9" fill-opacity="1"></rect>  <g data-v-06c5d478="" fill="#333" class="newinitialsvg-g newinitialsvg" transform="translate(79.27250671386719,89.13874816894531)"><g class="tp-name" transform="translate(0,0)"><g transform="translate(0, 0)" mask="url(#e3d72bf2ea78f65d28b50531441cdd4f)"><rect fill="#7acfdf" x="0" y="-3" width="52.77" height="52.77" rx="26.385"></rect> <g fill="#fde3d9" transform="translate(7.530000457763673,3)"><path d="M41.85-32.76L40.99-30.24Q40.50-30.42 39.49-30.53Q38.48-30.64 37.71-30.55L37.71-30.55L8.01-26.82Q7.29-26.73 6.50-26.41Q5.71-26.10 5.26-25.74L5.26-25.74L4.14-27.95Q5.17-27.95 6.01-27.95Q6.84-27.95 8.01-28.08L8.01-28.08L17.95-29.34L13.00-35.05L16.61-36.99L19.13-29.47L26.01-30.33L29.29-37.71L33.25-35.55L27.77-30.55L38.07-31.86Q38.48-31.90 38.97-31.99Q39.46-32.09 39.98-32.20Q40.50-32.31 40.99-32.47Q41.49-32.63 41.85-32.76L41.85-32.76ZM38.48-16.61L38.48-16.61Q38.56-12.91 38.38-9.34Q38.20-5.76 37.57-3.15L37.57-3.15Q37.17-1.35 36.25 0.04Q35.32 1.44 34.02 2.16L34.02 2.16Q32.98 2.70 31.77 2.72Q30.55 2.75 29.16 2.11L29.16 2.11Q28.39 1.75 27.81 1.15Q27.22 0.54 26.86-0.22L26.86-0.22Q26.23-1.53 26.41-2.79L26.41-2.79Q26.55-3.87 27.11-4.63Q27.68-5.40 28.48-5.80L28.48-5.80Q29.83-6.52 31.36-6.03L31.36-6.03Q32.94-5.54 33.44-4.18L33.44-4.18Q33.84-3.19 33.44-1.89L33.44-1.89Q33.25-1.30 32.83-0.92Q32.40-0.54 31.90-0.36L31.90-0.36Q31.00-0.04 29.92-0.40L29.92-0.40Q29.16-0.72 28.96-1.42Q28.75-2.11 29.07-2.61L29.07-2.61Q29.29-3.01 29.74-3.19Q30.20-3.38 30.69-3.19L30.69-3.19Q30.24-3.01 29.88-2.65Q29.52-2.29 29.61-1.84L29.61-1.84Q29.79-1.21 30.69-1.13L30.69-1.13Q31.05-1.03 31.45-1.15Q31.86-1.26 32.13-1.57L32.13-1.57Q32.63-2.21 32.63-3.10Q32.63-4.00 31.99-4.59L31.99-4.59Q31.54-5.04 31.00-5.20Q30.46-5.35 29.92-5.26L29.92-5.26Q28.39-5.04 27.72-3.69L27.72-3.69Q27.09-2.34 27.63-0.94L27.63-0.94Q28.04 0.27 29.16 0.94L29.16 0.94Q30.20 1.57 31.07 1.67Q31.95 1.75 32.63 1.40L32.63 1.40Q33.75 0.81 34.36-0.61Q34.96-2.02 35.14-3.69L35.14-3.69Q35.28-5.00 35.35-6.52Q35.41-8.05 35.37-9.72Q35.32-11.38 35.21-13.14Q35.10-14.89 34.96-16.56L34.96-16.56Q34.78-18.40 34.58-20.07Q34.38-21.73 34.13-23.11Q33.88-24.48 33.64-25.47Q33.39-26.46 33.16-26.91L33.16-26.91L37.35-27.58Q37.80-25.43 38.09-22.57Q38.38-19.71 38.48-16.61ZM31.23-22.86L30.20-7.69L28.39-7.42L27.09-22.18L31.23-22.86ZM23.71-18.59L23.71-18.59Q23.80-17.19 23.85-15.23Q23.89-13.28 23.85-11.12Q23.80-8.96 23.63-6.75Q23.45-4.54 23.04-2.65L23.04-2.65Q22.50-0.09 21.22 1.28Q19.93 2.65 18.54 2.75L18.54 2.75Q17.19 2.83 15.93 1.71Q14.67 0.58 13.95-1.84L13.95-1.84Q16.06 0.85 17.68 0.63L17.68 0.63Q18.63 0.54 19.30-0.52Q19.98-1.57 20.20-3.33L20.20-3.33Q20.43-5.08 20.50-7.18Q20.56-9.27 20.52-11.38Q20.47-13.50 20.32-15.57Q20.16-17.64 19.93-19.35L19.93-19.35Q19.80-20.38 19.48-21.04Q19.17-21.69 18.72-22.09L18.72-22.09Q18.13-22.59 17.37-22.66Q16.61-22.72 15.79-22.50L15.79-22.50Q14.80-22.27 13.84-21.71Q12.87-21.15 12.06-20.47L12.06-20.47L12.01-16.65L15.57-17.10Q16.38-17.19 17.08-17.35Q17.77-17.50 18.50-17.73L18.50-17.73L17.73-15.62Q17.23-15.84 16.54-15.88Q15.84-15.93 15.21-15.84L15.21-15.84L12.01-15.39L11.92-10.21L15.71-10.71Q16.52-10.80 17.21-10.96Q17.91-11.12 18.63-11.34L18.63-11.34L17.86-9.22Q17.37-9.45 16.67-9.49Q15.97-9.54 15.34-9.45L15.34-9.45L11.92-9L11.79 0L9.99 0.27L7.96-24.16L12.11-24.84L12.06-21.78Q12.87-22.27 13.86-22.81Q14.85-23.36 15.79-23.71L15.79-23.71Q17.23-24.25 18.68-24.07Q20.11-23.89 21.24-23.13L21.24-23.13Q22.32-22.41 22.97-21.26Q23.63-20.11 23.71-18.59Z" transform="translate(-4.14, 37.71)"></path></g></g><g transform="translate(56.77, 0)"><g fill="#333" transform="translate(0,3)"><path d="M39.69-35.37L37.21-24.21L35.41-23.89L35.41-26.32Q33.21-25.29 30.58-24.68Q27.95-24.07 24.57-23.80L24.57-23.80Q23.49-23.71 22.48-23.78Q21.46-23.85 20.65-24.25L20.65-24.25Q19.89-24.61 19.37-25.31Q18.86-26.01 18.63-27.18L18.63-27.18Q18.40-28.48 18.40-29.88Q18.40-31.27 18.59-32.58L18.59-32.58L22.41-33.16Q22.00-30.87 22.00-28.21L22.00-28.21Q22.00-26.55 22.99-25.92L22.99-25.92Q23.49-25.56 24.16-25.47Q24.84-25.38 25.70-25.47L25.70-25.47Q26.23-25.52 26.80-25.56Q27.36-25.61 27.95-25.70L27.95-25.70L26.68-36.54L30.96-37.13L29.88-26.01Q31.32-26.23 32.71-26.64Q34.11-27.04 35.41-27.54L35.41-27.54L35.41-34.78L39.69-35.37ZM17.55-27.95L16.74-25.74Q16.11-25.96 15.43-26.01Q14.76-26.05 14.13-25.96L14.13-25.96L6.25-24.88Q5.49-24.79 4.97-24.61Q4.46-24.43 3.96-24.03L3.96-24.03L2.88-25.92Q4.41-25.88 5.94-26.05L5.94-26.05L9.09-26.46L7.92-33.52L12.38-34.11L11.25-26.77L14.63-27.22Q15.43-27.31 16.13-27.52Q16.83-27.72 17.55-27.95L17.55-27.95ZM42.30-23.45L41.45-20.97Q40.95-21.20 40.03-21.33Q39.10-21.46 38.34-21.38L38.34-21.38L31.81-20.47Q31.00-19.21 29.97-17.86Q28.93-16.52 28.04-15.43L28.04-15.43Q29.52-15.71 30.96-15.86Q32.40-16.02 33.70-15.97L33.70-15.97Q35.28-15.88 36.59-15.52Q37.89-15.16 38.84-14.31L38.84-14.31Q39.60-13.59 40.05-12.55Q40.50-11.52 40.59-10.04L40.59-10.04Q40.73-7.88 40.61-5.80Q40.50-3.73 40.00-2.02L40.00-2.02Q39.64-0.77 38.86 0.22Q38.07 1.21 36.99 1.84L36.99 1.84Q36.09 2.38 34.99 2.63Q33.88 2.88 32.80 2.75L32.80 2.75Q30.87 2.48 29.79 1.13L29.79 1.13Q29.29 0.49 29.02-0.29Q28.75-1.08 28.84-2.02L28.84-2.02Q28.93-2.70 29.25-3.33Q29.56-3.96 30.15-4.46L30.15-4.46Q31.27-5.35 32.67-5.35L32.67-5.35Q34.16-5.35 35.10-4.32L35.10-4.32Q35.59-3.78 35.68-3.15Q35.77-2.52 35.55-1.89L35.55-1.89Q35.32-1.21 34.76-0.70Q34.20-0.18 33.39-0.09L33.39-0.09Q32.63 0 32.13-0.32Q31.63-0.63 31.41-0.99L31.41-0.99Q31.05-1.57 31.16-2.05Q31.27-2.52 31.59-2.79L31.59-2.79Q31.95-3.06 32.38-3.06Q32.80-3.06 33.16-2.65L33.16-2.65Q32.63-2.70 32.31-2.48L32.31-2.48Q32.09-2.25 32.06-1.96Q32.04-1.67 32.22-1.44L32.22-1.44Q32.45-1.08 32.87-1.01Q33.30-0.94 33.66-1.08L33.66-1.08Q34.16-1.30 34.45-1.75Q34.74-2.21 34.70-2.75L34.70-2.75Q34.70-3.15 34.52-3.53Q34.34-3.92 33.88-4.18L33.88-4.18Q33.39-4.46 32.89-4.50Q32.40-4.54 31.90-4.41L31.90-4.41Q30.64-4.09 30.06-2.92L30.06-2.92Q29.83-2.43 29.81-1.87Q29.79-1.30 29.92-0.77L29.92-0.77Q30.15 0.04 30.71 0.61Q31.27 1.17 32.17 1.35L32.17 1.35Q33.03 1.53 33.98 1.30Q34.92 1.08 35.59 0.54L35.59 0.54Q36.90-0.45 37.21-2.48L37.21-2.48Q37.53-4.23 37.51-6.41Q37.48-8.59 37.39-10.75L37.39-10.75Q37.35-11.79 36.97-12.49Q36.59-13.18 36.09-13.68L36.09-13.68Q35.23-14.40 33.93-14.58L33.93-14.58L32.27-5.85L30.51-5.67L30.51-14.63Q29.83-14.54 29.14-14.45Q28.44-14.35 27.77-14.17L27.77-14.17L27.77-2.52L25.96-2.25L24.30-13.18Q23.09-12.78 22.05-12.29L22.05-12.29L22.05 1.89L20.25 2.16L18.45-11.79L4.41-3.55L2.21-7.74L10.66-9.99L12.20-23.49L16.43-22.14L11.61-10.26L18.40-12.11L18.04-14.98L22.05-15.66L22.05-13.63Q22.90-13.99 24.10-14.40Q25.29-14.80 26.73-15.16L26.73-15.16Q26.95-16.20 27.16-17.50Q27.36-18.81 27.49-19.89L27.49-19.89L20.75-18.99Q19.98-18.90 19.19-18.61Q18.40-18.31 17.91-17.82L17.91-17.82L16.56-20.11Q17.46-19.98 18.52-20.02Q19.57-20.07 20.75-20.25L20.75-20.25L38.70-22.68Q39.46-22.77 40.48-22.95Q41.49-23.13 42.30-23.45L42.30-23.45ZM8.41-9.86L4.00-21.78L8.19-23.31L8.41-9.86Z" transform="translate(-2.205, 37.71)"></path></g></g><g transform="translate(100.86500000000001, 0)"><g fill="#333" transform="translate(0,3)"><path d="M41.89-17.82L41.04-15.30Q40.55-15.48 39.53-15.59Q38.52-15.71 37.75-15.62L37.75-15.62L34.52-15.21L34.02 1.71L32.22 1.89L31.59-14.85L25.33-14.08Q24.93-11.25 23.96-8.87Q22.99-6.48 21.55-4.46L21.55-4.46Q20.20-2.56 18.50-1.01Q16.79 0.54 14.85 1.71L14.85 1.71Q18.13-2.21 19.80-5.76L19.80-5.76Q20.70-7.69 21.22-9.63Q21.73-11.56 21.91-13.68L21.91-13.68L19.75-13.41Q19.04-13.32 18.25-13.00Q17.46-12.69 17.01-12.33L17.01-12.33L15.88-14.54Q16.92-14.45 17.75-14.49Q18.59-14.54 19.75-14.67L19.75-14.67L21.96-14.94Q22.05-16.79 22.07-19.17Q22.09-21.55 22.00-24.39L22.00-24.39L21.06-24.25Q20.34-24.16 19.53-23.87Q18.72-23.58 18.22-23.09L18.22-23.09L16.88-25.24Q17.77-25.20 18.83-25.31Q19.89-25.43 21.06-25.52L21.06-25.52L21.96-25.61Q21.87-27.77 21.78-30.06Q21.69-32.35 21.51-34.83L21.51-34.83L25.74-35.41Q25.79-32.94 25.81-30.60Q25.83-28.26 25.83-26.10L25.83-26.10L31.14-26.82L30.82-36.18L35.10-36.77L34.83-27.27L36.90-27.54Q37.66-27.63 38.68-27.79Q39.69-27.95 40.45-28.17L40.45-28.17L39.64-25.83Q39.02-26.19 38.16-26.26Q37.30-26.32 36.54-26.23L36.54-26.23L34.78-26.01L34.52-16.47L38.12-16.92Q38.52-16.96 39.02-17.05Q39.51-17.14 40.03-17.26Q40.55-17.37 41.04-17.53Q41.53-17.68 41.89-17.82L41.89-17.82ZM14.26-24.48L6.30-30.33L9.22-33.44L14.26-24.48ZM18.13-8.69L18.13-8.69Q17.82-7.20 17.55-6.14Q17.28-5.08 16.92-4.30Q16.56-3.51 16.06-2.90Q15.57-2.29 14.80-1.71L14.80-1.71Q13.95-1.08 12.91-1.03Q11.88-0.99 11.03-1.48L11.03-1.48Q10.26-1.89 9.81-2.65Q9.36-3.42 9.31-4.46L9.31-4.46Q9.18-8.69 9.11-12.98Q9.04-17.28 9.13-20.75L9.13-20.75Q9.13-21.38 8.78-21.69Q8.41-22.00 7.88-21.96L7.88-21.96Q7.29-21.91 6.52-21.67Q5.76-21.42 5.13-20.65L5.13-20.65Q4.59-19.98 4.41-19.21L4.41-19.21L2.70-20.34Q3.78-21.64 5.11-22.34Q6.43-23.04 7.83-23.31L7.83-23.31Q10.08-23.80 11.56-22.72L11.56-22.72Q12.15-22.27 12.53-21.60Q12.91-20.93 12.82-19.93L12.82-19.93Q12.60-16.11 12.46-12.31Q12.33-8.50 12.38-4.46L12.38-4.46Q12.38-4.05 12.60-3.82Q12.82-3.60 13.16-3.53Q13.50-3.46 13.84-3.53Q14.17-3.60 14.45-3.78L14.45-3.78Q15.43-4.50 16.34-5.76Q17.23-7.02 18.13-8.69ZM31.54-16.11L31.18-25.56L25.83-24.88Q25.79-21.82 25.70-19.37Q25.61-16.92 25.47-15.34L25.47-15.34L31.54-16.11Z" transform="translate(-2.7, 37.71)"></path></g></g><g transform="translate(144.06, 0)"><g fill="#333" transform="translate(0,3)"><path d="M38.70-25.33L38.70-25.33Q39.55-23.76 38.25-21.38L38.25-21.38Q37.93-20.79 37.33-20.29Q36.72-19.80 35.98-19.35Q35.23-18.90 34.40-18.52Q33.57-18.13 32.76-17.77L32.76-17.77Q33.62-18.95 34.13-19.96Q34.65-20.97 35.05-22.27L35.05-22.27Q35.64-24.03 35.01-25.11L35.01-25.11Q34.60-25.74 33.80-26.10Q32.98-26.46 31.81-26.59L31.81-26.59Q29.38-26.86 26.82-26.75Q24.25-26.64 21.64-26.14L21.64-26.14Q18.68-25.65 15.88-24.82Q13.09-23.98 10.53-22.99L10.53-22.99L10.53-16.92L8.73-16.65L5.85-26.32L10.53-27.09L10.53-24.34Q13.37-25.43 16.20-26.21Q19.04-27 21.60-27.40L21.60-27.40L20.47-36.63L24.88-37.26L23.58-27.72Q24.88-27.90 25.90-27.97Q26.91-28.04 28.13-28.13L28.13-28.13L32.45-36.09L36.59-34.02L29.02-28.13Q30.24-28.13 31.54-28.06Q32.85-27.99 33.88-27.86L33.88-27.86Q37.71-27.31 38.70-25.33ZM19.04-30.73L19.04-30.73Q19.04-29.11 18.13-28.21L18.13-28.21Q17.14-27.22 15.34-27.13L15.34-27.13Q14.31-27.09 13.25-27.49Q12.20-27.90 11.47-28.57L11.47-28.57Q10.39-29.56 9.67-30.91Q8.96-32.27 8.59-33.57L8.59-33.57L12.15-34.65Q12.15-34.02 12.22-33.21Q12.29-32.40 12.44-31.63Q12.60-30.87 12.85-30.17Q13.09-29.47 13.46-29.07L13.46-29.07Q13.81-28.66 14.33-28.48Q14.85-28.30 15.30-28.30L15.30-28.30Q16.65-28.39 17.28-29.02L17.28-29.02Q17.64-29.34 17.84-29.83Q18.04-30.33 18-31.00L18-31.00Q18-31.50 17.77-31.93Q17.55-32.35 17.19-32.63L17.19-32.63Q16.43-33.25 15.48-32.71L15.48-32.71Q15.12-32.53 14.92-32.17Q14.71-31.81 14.67-31.45L14.67-31.45Q14.58-30.78 15.03-30.33L15.03-30.33Q15.34-30.02 15.75-30.11L15.75-30.11Q16.34-30.24 16.34-30.73L16.34-30.73Q16.38-31.14 16.02-31.32L16.02-31.32Q15.66-31.41 15.52-31.00L15.52-31.00Q15.34-31.77 15.84-31.99L15.84-31.99Q16.47-32.22 16.92-31.77L16.92-31.77Q17.28-31.27 17.19-30.60L17.19-30.60Q17.05-29.74 16.43-29.43L16.43-29.43Q16.16-29.25 15.82-29.20Q15.48-29.16 15.21-29.25L15.21-29.25Q14.67-29.43 14.24-29.90Q13.81-30.38 13.77-31.14L13.77-31.14Q13.77-32.49 14.71-33.25L14.71-33.25Q15.57-33.88 16.74-33.75L16.74-33.75Q17.19-33.66 17.59-33.44Q18-33.21 18.31-32.85L18.31-32.85Q19.04-31.99 19.04-30.73ZM31.23-16.43L30.42-14.22Q29.92-14.35 29.00-14.45Q28.08-14.54 27.31-14.45L27.31-14.45L17.14-13.14L17.14-11.65L15.34-11.38L12.87-21.46L17.14-22.32L17.14-20.56Q19.39-21.60 21.76-22.14Q24.12-22.68 26.01-22.81L26.01-22.81Q27.18-22.90 28.13-22.59Q29.07-22.27 29.61-21.64L29.61-21.64Q30.20-21.02 30.31-20.11Q30.42-19.21 29.97-18.18L29.97-18.18Q29.70-17.55 29.36-16.94Q29.02-16.34 28.53-15.79L28.53-15.79Q29.20-15.88 29.92-16.06Q30.64-16.25 31.23-16.43L31.23-16.43ZM41.13-3.15L40.32-0.77Q39.82-0.94 38.81-1.06Q37.80-1.17 37.03-1.08L37.03-1.08L7.74 2.11Q7.02 2.21 6.23 2.45Q5.44 2.70 5.00 3.06L5.00 3.06L3.73 0.90Q4.77 1.03 5.67 1.01Q6.57 0.99 7.74 0.85L7.74 0.85L21.33-0.63L20.79-6.57L12.78-5.63Q12.06-5.54 11.32-5.22Q10.57-4.91 10.08-4.54L10.08-4.54L8.91-6.61Q9.95-6.61 10.78-6.68Q11.61-6.75 12.78-6.88L12.78-6.88L20.65-7.83L20.29-11.88L24.75-12.46L24.30-8.23L31.95-9.13Q32.71-9.22 33.84-9.43Q34.96-9.63 35.68-9.90L35.68-9.90L34.88-7.51Q34.38-7.69 33.37-7.81Q32.35-7.92 31.59-7.83L31.59-7.83L24.16-6.97L23.54-0.85L37.39-2.38Q38.16-2.48 39.28-2.65Q40.41-2.83 41.13-3.15L41.13-3.15ZM26.77-19.30L26.77-19.30Q27-20.34 26.55-20.84L26.55-20.84Q26.32-21.20 25.81-21.31Q25.29-21.42 24.61-21.38L24.61-21.38Q23.22-21.29 21.29-20.81Q19.35-20.34 17.14-19.30L17.14-19.30L17.14-14.35L25.02-15.34Q25.61-16.20 26.08-17.21Q26.55-18.22 26.77-19.30Z" transform="translate(-3.735, 37.71)"></path></g></g></g> <g class="tp-slogan" fill="#f47645" transform="translate(0,59.77000045776367)"><!----> <rect x="0" height="1" y="3.9750003814697266" width="5.552490234375"></rect> <rect height="1" y="3.9750003814697266" width="5.552490234375" x="175.90249633789062"></rect> <g transform="translate(8.552490234375,0)"><path d="M6.42-3.89L2.20-3.89L2.20 0L1.03 0L1.03-8.58L6.98-8.58L6.98-7.59L2.20-7.59L2.20-4.92L6.42-4.92L6.42-3.89ZM12.28-3.70L9.47-3.70L9.47 0L8.30 0L8.30-8.58L12.28-8.58Q15.14-8.58 15.14-6.28L15.14-6.28Q15.14-4.88 13.92-4.22L13.92-4.22Q14.95-3.94 14.95-2.58L14.95-2.58L15.05-1.03Q15-0.38 15.47-0.19L15.47-0.19L15.47 0L14.02 0Q13.88-0.61 13.83-2.16L13.83-2.16Q13.88-3.70 12.28-3.70L12.28-3.70ZM12.38-7.64L9.47-7.64L9.47-4.69L12.19-4.69Q13.92-4.69 13.92-6.19L13.92-6.19Q13.92-7.64 12.38-7.64L12.38-7.64ZM23.58-4.27L23.58-4.27Q23.39-7.64 20.58-7.83L20.58-7.83Q17.72-7.69 17.58-4.27L17.58-4.27Q17.72-0.94 20.58-0.80L20.58-0.80Q23.39-0.98 23.58-4.27ZM24.75-4.27L24.75-4.27Q24.47 0 20.58 0.14L20.58 0.14Q16.64 0 16.36-4.27L16.36-4.27Q16.59-8.72 20.58-8.81L20.58-8.81Q24.47-8.67 24.75-4.27ZM27.52-8.58L31.83-1.64L31.83-8.58L32.95-8.58L32.95 0L31.64 0L27.28-6.94L27.23-6.94L27.23 0L26.11 0L26.11-8.58L27.52-8.58ZM36.94-7.59L34.03-7.59L34.03-8.58L40.97-8.58L40.97-7.59L38.06-7.59L38.06 0L36.94 0L36.94-7.59ZM47.63-3.47L47.63-2.58L41.58-2.58L41.58-3.47L47.63-3.47ZM50.30-1.03L55.45-1.03L55.45 0L49.13 0L49.13-8.58L55.36-8.58L55.36-7.59L50.30-7.59L50.30-4.92L54.98-4.92L54.98-3.89L50.30-3.89L50.30-1.03ZM58.36-8.58L62.67-1.64L62.67-8.58L63.80-8.58L63.80 0L62.48 0L58.13-6.94L58.08-6.94L58.08 0L56.95 0L56.95-8.58L58.36-8.58ZM69.09 0L65.63 0L65.63-8.58L69.14-8.58Q72.61-8.39 72.75-4.41L72.75-4.41Q72.56-0.09 69.09 0L69.09 0ZM68.95-7.64L66.80-7.64L66.80-0.98L69.05-0.98Q71.48-1.13 71.58-4.31L71.58-4.31Q71.53-7.55 68.95-7.64L68.95-7.64ZM77.53-8.58L78.70-8.58L78.70-1.03L83.06-1.03L83.06 0L77.53 0L77.53-8.58ZM85.50-1.03L90.66-1.03L90.66 0L84.33 0L84.33-8.58L90.56-8.58L90.56-7.59L85.50-7.59L85.50-4.92L90.19-4.92L90.19-3.89L85.50-3.89L85.50-1.03ZM99.33-6.05L99.33-6.05L98.20-6.05Q97.78-7.78 95.81-7.83L95.81-7.83Q93.09-7.69 93-4.36L93-4.36Q93-0.80 95.86-0.80L95.86-0.80Q97.83-0.84 98.30-3.19L98.30-3.19L99.42-3.19Q98.91 0.05 95.63 0.14L95.63 0.14Q91.88 0 91.78-4.31L91.78-4.31Q91.97-8.63 95.81-8.81L95.81-8.81Q98.86-8.72 99.33-6.05ZM102.98-7.59L100.08-7.59L100.08-8.58L107.02-8.58L107.02-7.59L104.11-7.59L104.11 0L102.98 0L102.98-7.59ZM113.72-3.19L113.72-8.58L114.89-8.58L114.89-3.05Q114.75 0.05 111.38 0.14L111.38 0.14Q108.23 0.05 108.09-2.86L108.09-2.86L108.09-8.58L109.27-8.58L109.27-3.19Q109.31-0.84 111.42-0.80L111.42-0.80Q113.72-0.84 113.72-3.19L113.72-3.19ZM120.80-3.70L117.98-3.70L117.98 0L116.81 0L116.81-8.58L120.80-8.58Q123.66-8.58 123.66-6.28L123.66-6.28Q123.66-4.88 122.44-4.22L122.44-4.22Q123.47-3.94 123.47-2.58L123.47-2.58L123.56-1.03Q123.52-0.38 123.98-0.19L123.98-0.19L123.98 0L122.53 0Q122.39-0.61 122.34-2.16L122.34-2.16Q122.39-3.70 120.80-3.70L120.80-3.70ZM120.89-7.64L117.98-7.64L117.98-4.69L120.70-4.69Q122.44-4.69 122.44-6.19L122.44-6.19Q122.44-7.64 120.89-7.64L120.89-7.64ZM126.61-1.03L131.77-1.03L131.77 0L125.44 0L125.44-8.58L131.67-8.58L131.67-7.59L126.61-7.59L126.61-4.92L131.30-4.92L131.30-3.89L126.61-3.89L126.61-1.03ZM137.77-5.06L142.27-5.06L142.27-8.58L143.44-8.58L143.44 0L142.27 0L142.27-3.98L137.77-3.98L137.77 0L136.59 0L136.59-8.58L137.77-8.58L137.77-5.06ZM150.89 0L150.05-2.48L146.58-2.48L145.69 0L144.52 0L147.75-8.58L149.06-8.58L152.16 0L150.89 0ZM148.31-7.31L146.95-3.52L149.63-3.52L148.36-7.31L148.31-7.31ZM153.19-8.58L154.36-8.58L154.36-1.03L158.72-1.03L158.72 0L153.19 0L153.19-8.58ZM159.84-8.58L161.02-8.58L161.02-1.03L165.38-1.03L165.38 0L159.84 0L159.84-8.58Z" transform="translate(-1.03125, 8.8125)"></path></g></g></g><mask id="e3d72bf2ea78f65d28b50531441cdd4f"><rect x="0" y="-3" width="52.77" height="52.77" rx="26.385" fill="white"></rect> <g transform="translate(7.530000457763673,3)" fill="black"><path d="M41.85-32.76L40.99-30.24Q40.50-30.42 39.49-30.53Q38.48-30.64 37.71-30.55L37.71-30.55L8.01-26.82Q7.29-26.73 6.50-26.41Q5.71-26.10 5.26-25.74L5.26-25.74L4.14-27.95Q5.17-27.95 6.01-27.95Q6.84-27.95 8.01-28.08L8.01-28.08L17.95-29.34L13.00-35.05L16.61-36.99L19.13-29.47L26.01-30.33L29.29-37.71L33.25-35.55L27.77-30.55L38.07-31.86Q38.48-31.90 38.97-31.99Q39.46-32.09 39.98-32.20Q40.50-32.31 40.99-32.47Q41.49-32.63 41.85-32.76L41.85-32.76ZM38.48-16.61L38.48-16.61Q38.56-12.91 38.38-9.34Q38.20-5.76 37.57-3.15L37.57-3.15Q37.17-1.35 36.25 0.04Q35.32 1.44 34.02 2.16L34.02 2.16Q32.98 2.70 31.77 2.72Q30.55 2.75 29.16 2.11L29.16 2.11Q28.39 1.75 27.81 1.15Q27.22 0.54 26.86-0.22L26.86-0.22Q26.23-1.53 26.41-2.79L26.41-2.79Q26.55-3.87 27.11-4.63Q27.68-5.40 28.48-5.80L28.48-5.80Q29.83-6.52 31.36-6.03L31.36-6.03Q32.94-5.54 33.44-4.18L33.44-4.18Q33.84-3.19 33.44-1.89L33.44-1.89Q33.25-1.30 32.83-0.92Q32.40-0.54 31.90-0.36L31.90-0.36Q31.00-0.04 29.92-0.40L29.92-0.40Q29.16-0.72 28.96-1.42Q28.75-2.11 29.07-2.61L29.07-2.61Q29.29-3.01 29.74-3.19Q30.20-3.38 30.69-3.19L30.69-3.19Q30.24-3.01 29.88-2.65Q29.52-2.29 29.61-1.84L29.61-1.84Q29.79-1.21 30.69-1.13L30.69-1.13Q31.05-1.03 31.45-1.15Q31.86-1.26 32.13-1.57L32.13-1.57Q32.63-2.21 32.63-3.10Q32.63-4.00 31.99-4.59L31.99-4.59Q31.54-5.04 31.00-5.20Q30.46-5.35 29.92-5.26L29.92-5.26Q28.39-5.04 27.72-3.69L27.72-3.69Q27.09-2.34 27.63-0.94L27.63-0.94Q28.04 0.27 29.16 0.94L29.16 0.94Q30.20 1.57 31.07 1.67Q31.95 1.75 32.63 1.40L32.63 1.40Q33.75 0.81 34.36-0.61Q34.96-2.02 35.14-3.69L35.14-3.69Q35.28-5.00 35.35-6.52Q35.41-8.05 35.37-9.72Q35.32-11.38 35.21-13.14Q35.10-14.89 34.96-16.56L34.96-16.56Q34.78-18.40 34.58-20.07Q34.38-21.73 34.13-23.11Q33.88-24.48 33.64-25.47Q33.39-26.46 33.16-26.91L33.16-26.91L37.35-27.58Q37.80-25.43 38.09-22.57Q38.38-19.71 38.48-16.61ZM31.23-22.86L30.20-7.69L28.39-7.42L27.09-22.18L31.23-22.86ZM23.71-18.59L23.71-18.59Q23.80-17.19 23.85-15.23Q23.89-13.28 23.85-11.12Q23.80-8.96 23.63-6.75Q23.45-4.54 23.04-2.65L23.04-2.65Q22.50-0.09 21.22 1.28Q19.93 2.65 18.54 2.75L18.54 2.75Q17.19 2.83 15.93 1.71Q14.67 0.58 13.95-1.84L13.95-1.84Q16.06 0.85 17.68 0.63L17.68 0.63Q18.63 0.54 19.30-0.52Q19.98-1.57 20.20-3.33L20.20-3.33Q20.43-5.08 20.50-7.18Q20.56-9.27 20.52-11.38Q20.47-13.50 20.32-15.57Q20.16-17.64 19.93-19.35L19.93-19.35Q19.80-20.38 19.48-21.04Q19.17-21.69 18.72-22.09L18.72-22.09Q18.13-22.59 17.37-22.66Q16.61-22.72 15.79-22.50L15.79-22.50Q14.80-22.27 13.84-21.71Q12.87-21.15 12.06-20.47L12.06-20.47L12.01-16.65L15.57-17.10Q16.38-17.19 17.08-17.35Q17.77-17.50 18.50-17.73L18.50-17.73L17.73-15.62Q17.23-15.84 16.54-15.88Q15.84-15.93 15.21-15.84L15.21-15.84L12.01-15.39L11.92-10.21L15.71-10.71Q16.52-10.80 17.21-10.96Q17.91-11.12 18.63-11.34L18.63-11.34L17.86-9.22Q17.37-9.45 16.67-9.49Q15.97-9.54 15.34-9.45L15.34-9.45L11.92-9L11.79 0L9.99 0.27L7.96-24.16L12.11-24.84L12.06-21.78Q12.87-22.27 13.86-22.81Q14.85-23.36 15.79-23.71L15.79-23.71Q17.23-24.25 18.68-24.07Q20.11-23.89 21.24-23.13L21.24-23.13Q22.32-22.41 22.97-21.26Q23.63-20.11 23.71-18.59Z" transform="translate(-4.14, 37.71)"></path></g></mask></svg>